name: Gomme Medium 20
family: Gomme
foundry: misc
copyright: (CC BY-NC-SA 4.0) Georg Schabel
point-size: 20
weight: medium
dpi: 100 100
spacing: character-cell
offset: 0 -6
encoding: unicode
default-char: u+0000
converter: monobit v0.12
source-name: Gomme10x20n.bdf
source-format: BDF v2.1
bdf.MIN-SPACE: 10
bdf.-GBDFED-INFO: "Edited with gbdfed 1.6."

u+0000:
<control>:
    ..........
    ..........
    ..........
    ..........
    ..........
    .@.@@@@@..
    .@.@...@..
    .@.@.@.@..
    .@.@.@.@..
    .@.@.@.@..
    .@.@.@.@..
    .@.@@@.@..
    .@.....@..
    .@@@@@@@..
    ..........
    ..........
    ..........
    ..........
    ..........
    ..........

u+0020:
SPACE:
    ..........
    ..........
    ..........
    ..........
    ..........
    ..........
    ..........
    ..........
    ..........
    ..........
    ..........
    ..........
    ..........
    ..........
    ..........
    ..........
    ..........
    ..........
    ..........
    ..........

u+0021:
EXCLAMATION MARK:
    ..........
    ..........
    ..........
    ..........
    ....@.....
    ....@.....
    ....@.....
    ....@.....
    ....@.....
    ....@.....
    ..........
    ..........
    ....@.....
    ....@.....
    ..........
    ..........
    ..........
    ..........
    ..........
    ..........

u+0022:
QUOTATION MARK:
    ..........
    ..........
    ..........
    ..........
    ..@...@...
    ..@...@...
    ..@...@...
    ..@...@...
    ..........
    ..........
    ..........
    ..........
    ..........
    ..........
    ..........
    ..........
    ..........
    ..........
    ..........
    ..........

u+0023:
NUMBER SIGN:
    ..........
    ..........
    ..........
    ..........
    ..........
    ..@...@...
    ..@...@...
    .@@@@@@@..
    ..@...@...
    ..@...@...
    ..@...@...
    .@@@@@@@..
    ..@...@...
    ..@...@...
    ..........
    ..........
    ..........
    ..........
    ..........
    ..........

u+0024:
DOLLAR SIGN:
    ..........
    ..........
    ..........
    ....@.....
    ....@.....
    ..@@@@@...
    .@.....@..
    .@........
    .@........
    ..@@@@@...
    .......@..
    .......@..
    .@.....@..
    ..@@@@@...
    ....@.....
    ....@.....
    ..........
    ..........
    ..........
    ..........

u+0025:
PERCENT SIGN:
    ..........
    ..........
    ..........
    ..........
    ..@@......
    .@..@...@.
    .@..@..@..
    ..@@..@...
    .....@....
    ....@.....
    ...@..@@..
    ..@..@..@.
    .@...@..@.
    ......@@..
    ..........
    ..........
    ..........
    ..........
    ..........
    ..........

u+0026:
AMPERSAND:
    ..........
    ..........
    ..........
    ..........
    ..@@@@....
    .@....@...
    .@........
    ..@.......
    ...@......
    ..@.@.....
    .@...@.@..
    .@....@...
    .@...@.@..
    ..@@@...@.
    ..........
    ..........
    ..........
    ..........
    ..........
    ..........

u+0027:
APOSTROPHE:
    ..........
    ..........
    ..........
    ....@.....
    ....@.....
    ....@.....
    ....@.....
    ..........
    ..........
    ..........
    ..........
    ..........
    ..........
    ..........
    ..........
    ..........
    ..........
    ..........
    ..........
    ..........

u+0028:
LEFT PARENTHESIS:
    ..........
    ..........
    .....@....
    ....@.....
    ...@......
    ...@......
    ..@.......
    ..@.......
    ..@.......
    ..@.......
    ..@.......
    ..@.......
    ..@.......
    ..@.......
    ...@......
    ...@......
    ....@.....
    .....@....
    ..........
    ..........

u+0029:
RIGHT PARENTHESIS:
    ..........
    ..........
    ..@.......
    ...@......
    ....@.....
    ....@.....
    .....@....
    .....@....
    .....@....
    .....@....
    .....@....
    .....@....
    .....@....
    .....@....
    ....@.....
    ....@.....
    ...@......
    ..@.......
    ..........
    ..........

u+002a:
ASTERISK:
    ..........
    ..........
    ..........
    ..........
    ..........
    ..........
    ....@.....
    .@..@..@..
    ..@.@.@...
    ...@@@....
    ..@.@.@...
    .@..@..@..
    ....@.....
    ..........
    ..........
    ..........
    ..........
    ..........
    ..........
    ..........

u+002b:
PLUS SIGN:
    ..........
    ..........
    ..........
    ..........
    ..........
    ..........
    ....@.....
    ....@.....
    ....@.....
    .@@@@@@@..
    ....@.....
    ....@.....
    ....@.....
    ..........
    ..........
    ..........
    ..........
    ..........
    ..........
    ..........

u+002c:
COMMA:
    ..........
    ..........
    ..........
    ..........
    ..........
    ..........
    ..........
    ..........
    ..........
    ..........
    ..........
    ..........
    ...@@.....
    ...@@.....
    ....@.....
    ....@.....
    ...@......
    ..........
    ..........
    ..........

u+002d:
HYPHEN-MINUS:
    ..........
    ..........
    ..........
    ..........
    ..........
    ..........
    ..........
    ..........
    ..........
    .@@@@@@@..
    ..........
    ..........
    ..........
    ..........
    ..........
    ..........
    ..........
    ..........
    ..........
    ..........

u+002e:
FULL STOP:
    ..........
    ..........
    ..........
    ..........
    ..........
    ..........
    ..........
    ..........
    ..........
    ..........
    ..........
    ..........
    ...@@.....
    ...@@.....
    ..........
    ..........
    ..........
    ..........
    ..........
    ..........

u+002f:
SOLIDUS:
    ..........
    ..........
    ..........
    .......@..
    .......@..
    ......@...
    ......@...
    .....@....
    .....@....
    ....@.....
    ....@.....
    ...@......
    ...@......
    ..@.......
    ..@.......
    .@........
    .@........
    ..........
    ..........
    ..........

u+0030:
DIGIT ZERO:
    ..........
    ..........
    ..........
    ..........
    ..........
    ..@@@@@...
    .@.....@..
    .@....@@..
    .@...@.@..
    .@..@..@..
    .@.@...@..
    .@@....@..
    .@.....@..
    ..@@@@@...
    ..........
    ..........
    ..........
    ..........
    ..........
    ..........

u+0031:
DIGIT ONE:
    ..........
    ..........
    ..........
    ..........
    ..........
    ....@.....
    ...@@.....
    ..@.@.....
    .@..@.....
    ....@.....
    ....@.....
    ....@.....
    ....@.....
    .@@@@@@@..
    ..........
    ..........
    ..........
    ..........
    ..........
    ..........

u+0032:
DIGIT TWO:
    ..........
    ..........
    ..........
    ..........
    ..........
    ..@@@@@...
    .@.....@..
    .......@..
    ......@...
    .....@....
    ....@.....
    ...@......
    ..@.......
    .@@@@@@@..
    ..........
    ..........
    ..........
    ..........
    ..........
    ..........

u+0033:
DIGIT THREE:
    ..........
    ..........
    ..........
    ..........
    ..........
    .@@@@@@@..
    ......@...
    .....@....
    ....@@....
    ......@...
    .......@..
    .......@..
    .@.....@..
    ..@@@@@...
    ..........
    ..........
    ..........
    ..........
    ..........
    ..........

u+0034:
DIGIT FOUR:
    ..........
    ..........
    ..........
    ..........
    ..........
    ......@...
    .....@@...
    ....@.@...
    ...@..@...
    ..@...@...
    .@....@...
    .@@@@@@@..
    ......@...
    ......@...
    ..........
    ..........
    ..........
    ..........
    ..........
    ..........

u+0035:
DIGIT FIVE:
    ..........
    ..........
    ..........
    ..........
    ..........
    .@@@@@@@..
    .@........
    .@........
    .@@@@@@...
    .......@..
    .......@..
    .......@..
    .@.....@..
    ..@@@@@...
    ..........
    ..........
    ..........
    ..........
    ..........
    ..........

u+0036:
DIGIT SIX:
    ..........
    ..........
    ..........
    ..........
    ..........
    ...@@@@...
    ..@.......
    .@........
    .@@@@@@...
    .@.....@..
    .@.....@..
    .@.....@..
    .@.....@..
    ..@@@@@...
    ..........
    ..........
    ..........
    ..........
    ..........
    ..........

u+0037:
DIGIT SEVEN:
    ..........
    ..........
    ..........
    ..........
    ..........
    .@@@@@@@..
    .......@..
    ......@...
    ......@...
    .....@....
    .....@....
    ....@.....
    ....@.....
    ....@.....
    ..........
    ..........
    ..........
    ..........
    ..........
    ..........

u+0038:
DIGIT EIGHT:
    ..........
    ..........
    ..........
    ..........
    ..........
    ..@@@@@...
    .@.....@..
    .@.....@..
    .@.....@..
    ..@@@@@...
    .@.....@..
    .@.....@..
    .@.....@..
    ..@@@@@...
    ..........
    ..........
    ..........
    ..........
    ..........
    ..........

u+0039:
DIGIT NINE:
    ..........
    ..........
    ..........
    ..........
    ..........
    ..@@@@@...
    .@.....@..
    .@.....@..
    .@.....@..
    .@.....@..
    ..@@@@@@..
    .......@..
    ......@...
    ...@@@....
    ..........
    ..........
    ..........
    ..........
    ..........
    ..........

u+003a:
COLON:
    ..........
    ..........
    ..........
    ..........
    ..........
    ..........
    ...@@.....
    ...@@.....
    ..........
    ..........
    ..........
    ..........
    ...@@.....
    ...@@.....
    ..........
    ..........
    ..........
    ..........
    ..........
    ..........

u+003b:
SEMICOLON:
    ..........
    ..........
    ..........
    ..........
    ..........
    ..........
    ...@@.....
    ...@@.....
    ..........
    ..........
    ..........
    ..........
    ...@@.....
    ...@@.....
    ....@.....
    ....@.....
    ...@......
    ..........
    ..........
    ..........

u+003c:
LESS-THAN SIGN:
    ..........
    ..........
    ..........
    ..........
    ..........
    ......@...
    .....@....
    ....@.....
    ...@......
    ..@.......
    ...@......
    ....@.....
    .....@....
    ......@...
    ..........
    ..........
    ..........
    ..........
    ..........
    ..........

u+003d:
EQUALS SIGN:
    ..........
    ..........
    ..........
    ..........
    ..........
    ..........
    ..........
    .@@@@@@@..
    ..........
    ..........
    ..........
    .@@@@@@@..
    ..........
    ..........
    ..........
    ..........
    ..........
    ..........
    ..........
    ..........

u+003e:
GREATER-THAN SIGN:
    ..........
    ..........
    ..........
    ..........
    ..........
    ..@.......
    ...@......
    ....@.....
    .....@....
    ......@...
    .....@....
    ....@.....
    ...@......
    ..@.......
    ..........
    ..........
    ..........
    ..........
    ..........
    ..........

u+003f:
QUESTION MARK:
    ..........
    ..........
    ..........
    ..........
    ..@@@@@...
    .@.....@..
    .......@..
    ......@...
    .....@....
    ....@.....
    ..........
    ..........
    ....@.....
    ....@.....
    ..........
    ..........
    ..........
    ..........
    ..........
    ..........

u+0040:
COMMERCIAL AT:
    ..........
    ..........
    ..........
    ..........
    ..@@@@@...
    .@.....@..
    .@.....@..
    .@...@.@..
    .@..@..@..
    .@.@...@..
    .@.@...@..
    .@.@...@..
    .@..@@@...
    .@........
    .@........
    ..@@@@@...
    ..........
    ..........
    ..........
    ..........

u+0041:
LATIN CAPITAL LETTER A:
    ..........
    ..........
    ..........
    ..........
    ..........
    ..@@@@@...
    .@.....@..
    .@.....@..
    .@.....@..
    .@.....@..
    .@@@@@@@..
    .@.....@..
    .@.....@..
    .@.....@..
    ..........
    ..........
    ..........
    ..........
    ..........
    ..........

u+0042:
LATIN CAPITAL LETTER B:
    ..........
    ..........
    ..........
    ..........
    ..........
    .@@@@@@...
    .@.....@..
    .@.....@..
    .@.....@..
    .@@@@@@...
    .@.....@..
    .@.....@..
    .@.....@..
    .@@@@@@...
    ..........
    ..........
    ..........
    ..........
    ..........
    ..........

u+0043:
LATIN CAPITAL LETTER C:
    ..........
    ..........
    ..........
    ..........
    ..........
    ...@@@@...
    ..@....@..
    .@........
    .@........
    .@........
    .@........
    .@........
    ..@....@..
    ...@@@@...
    ..........
    ..........
    ..........
    ..........
    ..........
    ..........

u+0044:
LATIN CAPITAL LETTER D:
    ..........
    ..........
    ..........
    ..........
    ..........
    .@@@@@....
    .@....@...
    .@.....@..
    .@.....@..
    .@.....@..
    .@.....@..
    .@.....@..
    .@....@...
    .@@@@@....
    ..........
    ..........
    ..........
    ..........
    ..........
    ..........

u+0045:
LATIN CAPITAL LETTER E:
    ..........
    ..........
    ..........
    ..........
    ..........
    .@@@@@@@..
    .@........
    .@........
    .@........
    .@@@@@....
    .@........
    .@........
    .@........
    .@@@@@@@..
    ..........
    ..........
    ..........
    ..........
    ..........
    ..........

u+0046:
LATIN CAPITAL LETTER F:
    ..........
    ..........
    ..........
    ..........
    ..........
    .@@@@@@@..
    .@........
    .@........
    .@........
    .@@@@@....
    .@........
    .@........
    .@........
    .@........
    ..........
    ..........
    ..........
    ..........
    ..........
    ..........

u+0047:
LATIN CAPITAL LETTER G:
    ..........
    ..........
    ..........
    ..........
    ..........
    ..@@@@@...
    .@.....@..
    .@........
    .@........
    .@...@@@..
    .@.....@..
    .@.....@..
    .@.....@..
    ..@@@@@...
    ..........
    ..........
    ..........
    ..........
    ..........
    ..........

u+0048:
LATIN CAPITAL LETTER H:
    ..........
    ..........
    ..........
    ..........
    ..........
    .@.....@..
    .@.....@..
    .@.....@..
    .@.....@..
    .@@@@@@@..
    .@.....@..
    .@.....@..
    .@.....@..
    .@.....@..
    ..........
    ..........
    ..........
    ..........
    ..........
    ..........

u+0049:
LATIN CAPITAL LETTER I:
    ..........
    ..........
    ..........
    ..........
    ..........
    .@@@@@@@..
    ....@.....
    ....@.....
    ....@.....
    ....@.....
    ....@.....
    ....@.....
    ....@.....
    .@@@@@@@..
    ..........
    ..........
    ..........
    ..........
    ..........
    ..........

u+004a:
LATIN CAPITAL LETTER J:
    ..........
    ..........
    ..........
    ..........
    ..........
    ...@@@@@..
    .......@..
    .......@..
    .......@..
    .......@..
    .......@..
    .......@..
    .@.....@..
    ..@@@@@...
    ..........
    ..........
    ..........
    ..........
    ..........
    ..........

u+004b:
LATIN CAPITAL LETTER K:
    ..........
    ..........
    ..........
    ..........
    ..........
    .@.....@..
    .@....@...
    .@...@....
    .@..@.....
    .@.@......
    .@@.@.....
    .@...@....
    .@....@...
    .@.....@..
    ..........
    ..........
    ..........
    ..........
    ..........
    ..........

u+004c:
LATIN CAPITAL LETTER L:
    ..........
    ..........
    ..........
    ..........
    ..........
    .@........
    .@........
    .@........
    .@........
    .@........
    .@........
    .@........
    .@........
    .@@@@@@@..
    ..........
    ..........
    ..........
    ..........
    ..........
    ..........

u+004d:
LATIN CAPITAL LETTER M:
    ..........
    ..........
    ..........
    ..........
    ..........
    .@.....@..
    .@@...@@..
    .@.@.@.@..
    .@..@..@..
    .@..@..@..
    .@.....@..
    .@.....@..
    .@.....@..
    .@.....@..
    ..........
    ..........
    ..........
    ..........
    ..........
    ..........

u+004e:
LATIN CAPITAL LETTER N:
    ..........
    ..........
    ..........
    ..........
    ..........
    .@@....@..
    .@.@...@..
    .@..@..@..
    .@...@.@..
    .@....@@..
    .@.....@..
    .@.....@..
    .@.....@..
    .@.....@..
    ..........
    ..........
    ..........
    ..........
    ..........
    ..........

u+004f:
LATIN CAPITAL LETTER O:
    ..........
    ..........
    ..........
    ..........
    ..........
    ..@@@@@...
    .@.....@..
    .@.....@..
    .@.....@..
    .@.....@..
    .@.....@..
    .@.....@..
    .@.....@..
    ..@@@@@...
    ..........
    ..........
    ..........
    ..........
    ..........
    ..........

u+0050:
LATIN CAPITAL LETTER P:
    ..........
    ..........
    ..........
    ..........
    ..........
    .@@@@@@...
    .@.....@..
    .@.....@..
    .@.....@..
    .@.....@..
    .@@@@@@...
    .@........
    .@........
    .@........
    ..........
    ..........
    ..........
    ..........
    ..........
    ..........

u+0051:
LATIN CAPITAL LETTER Q:
    ..........
    ..........
    ..........
    ..........
    ..........
    ..@@@@@...
    .@.....@..
    .@.....@..
    .@.....@..
    .@.....@..
    .@.....@..
    .@.....@..
    .@...@.@..
    ..@@@@@...
    .......@..
    ..........
    ..........
    ..........
    ..........
    ..........

u+0052:
LATIN CAPITAL LETTER R:
    ..........
    ..........
    ..........
    ..........
    ..........
    .@@@@@@...
    .@.....@..
    .@.....@..
    .@.....@..
    .@@@@@@...
    .@....@...
    .@....@...
    .@.....@..
    .@.....@..
    ..........
    ..........
    ..........
    ..........
    ..........
    ..........

u+0053:
LATIN CAPITAL LETTER S:
    ..........
    ..........
    ..........
    ..........
    ..........
    ..@@@@@@..
    .@........
    ..@.......
    ...@......
    ....@.....
    .....@....
    ......@...
    .......@..
    .@@@@@@...
    ..........
    ..........
    ..........
    ..........
    ..........
    ..........

u+0054:
LATIN CAPITAL LETTER T:
    ..........
    ..........
    ..........
    ..........
    ..........
    @@@@@@@@@.
    ....@.....
    ....@.....
    ....@.....
    ....@.....
    ....@.....
    ....@.....
    ....@.....
    ....@.....
    ..........
    ..........
    ..........
    ..........
    ..........
    ..........

u+0055:
LATIN CAPITAL LETTER U:
    ..........
    ..........
    ..........
    ..........
    ..........
    .@.....@..
    .@.....@..
    .@.....@..
    .@.....@..
    .@.....@..
    .@.....@..
    .@.....@..
    .@.....@..
    ..@@@@@...
    ..........
    ..........
    ..........
    ..........
    ..........
    ..........

u+0056:
LATIN CAPITAL LETTER V:
    ..........
    ..........
    ..........
    ..........
    ..........
    .@.....@..
    .@.....@..
    .@.....@..
    ..@...@...
    ..@...@...
    ..@...@...
    ...@.@....
    ...@.@....
    ....@.....
    ..........
    ..........
    ..........
    ..........
    ..........
    ..........

u+0057:
LATIN CAPITAL LETTER W:
    ..........
    ..........
    ..........
    ..........
    ..........
    .@.....@..
    .@.....@..
    .@.....@..
    .@.....@..
    .@.....@..
    .@..@..@..
    .@..@..@..
    .@.@.@.@..
    .@@...@@..
    ..........
    ..........
    ..........
    ..........
    ..........
    ..........

u+0058:
LATIN CAPITAL LETTER X:
    ..........
    ..........
    ..........
    ..........
    ..........
    .@.....@..
    .@.....@..
    ..@...@...
    ...@.@....
    ....@.....
    ...@.@....
    ..@...@...
    .@.....@..
    .@.....@..
    ..........
    ..........
    ..........
    ..........
    ..........
    ..........

u+0059:
LATIN CAPITAL LETTER Y:
    ..........
    ..........
    ..........
    ..........
    ..........
    .@.....@..
    .@.....@..
    ..@...@...
    ...@.@....
    ....@.....
    ....@.....
    ....@.....
    ....@.....
    ....@.....
    ..........
    ..........
    ..........
    ..........
    ..........
    ..........

u+005a:
LATIN CAPITAL LETTER Z:
    ..........
    ..........
    ..........
    ..........
    ..........
    .@@@@@@@..
    .......@..
    ......@...
    .....@....
    ....@.....
    ...@......
    ..@.......
    .@........
    .@@@@@@@..
    ..........
    ..........
    ..........
    ..........
    ..........
    ..........

u+005b:
LEFT SQUARE BRACKET:
    ..........
    ..........
    ..@@@@@...
    ..@.......
    ..@.......
    ..@.......
    ..@.......
    ..@.......
    ..@.......
    ..@.......
    ..@.......
    ..@.......
    ..@.......
    ..@.......
    ..@.......
    ..@.......
    ..@.......
    ..@@@@@...
    ..........
    ..........

u+005c:
REVERSE SOLIDUS:
    ..........
    ..........
    ..........
    .@........
    .@........
    ..@.......
    ..@.......
    ...@......
    ...@......
    ....@.....
    ....@.....
    .....@....
    .....@....
    ......@...
    ......@...
    .......@..
    .......@..
    ..........
    ..........
    ..........

u+005d:
RIGHT SQUARE BRACKET:
    ..........
    ..........
    ..@@@@@...
    ......@...
    ......@...
    ......@...
    ......@...
    ......@...
    ......@...
    ......@...
    ......@...
    ......@...
    ......@...
    ......@...
    ......@...
    ......@...
    ......@...
    ..@@@@@...
    ..........
    ..........

u+005e:
CIRCUMFLEX ACCENT:
    ..........
    ..........
    ....@.....
    ...@.@....
    ..@...@...
    .@.....@..
    ..........
    ..........
    ..........
    ..........
    ..........
    ..........
    ..........
    ..........
    ..........
    ..........
    ..........
    ..........
    ..........
    ..........

u+005f:
LOW LINE:
    ..........
    ..........
    ..........
    ..........
    ..........
    ..........
    ..........
    ..........
    ..........
    ..........
    ..........
    ..........
    ..........
    ..........
    ..........
    ..........
    @@@@@@@@@@
    ..........
    ..........
    ..........

u+0060:
GRAVE ACCENT:
    ..........
    ..........
    ..@.......
    ...@......
    ....@.....
    .....@....
    ..........
    ..........
    ..........
    ..........
    ..........
    ..........
    ..........
    ..........
    ..........
    ..........
    ..........
    ..........
    ..........
    ..........

u+0061:
LATIN SMALL LETTER A:
    ..........
    ..........
    ..........
    ..........
    ..........
    ..........
    ..........
    ..@@@@@...
    .......@..
    .......@..
    ..@@@@@@..
    .@.....@..
    .@....@@..
    ..@@@@.@..
    ..........
    ..........
    ..........
    ..........
    ..........
    ..........

u+0062:
LATIN SMALL LETTER B:
    ..........
    ..........
    ..........
    ..........
    .@........
    .@........
    .@........
    .@..@@@...
    .@.@...@..
    .@@....@..
    .@.....@..
    .@.....@..
    .@.....@..
    .@@@@@@...
    ..........
    ..........
    ..........
    ..........
    ..........
    ..........

u+0063:
LATIN SMALL LETTER C:
    ..........
    ..........
    ..........
    ..........
    ..........
    ..........
    ..........
    ..@@@@@...
    .@.....@..
    .@........
    .@........
    .@........
    .@.....@..
    ..@@@@@...
    ..........
    ..........
    ..........
    ..........
    ..........
    ..........

u+0064:
LATIN SMALL LETTER D:
    ..........
    ..........
    ..........
    ..........
    .......@..
    .......@..
    .......@..
    ..@@@@.@..
    .@....@@..
    .@.....@..
    .@.....@..
    .@.....@..
    .@....@@..
    ..@@@@.@..
    ..........
    ..........
    ..........
    ..........
    ..........
    ..........

u+0065:
LATIN SMALL LETTER E:
    ..........
    ..........
    ..........
    ..........
    ..........
    ..........
    ..........
    ..@@@@@...
    .@.....@..
    .@.....@..
    .@@@@@@@..
    .@........
    .@........
    ..@@@@@@..
    ..........
    ..........
    ..........
    ..........
    ..........
    ..........

u+0066:
LATIN SMALL LETTER F:
    ..........
    ..........
    ..........
    ..........
    ....@@@@..
    ...@......
    ...@......
    ...@......
    .@@@@@@...
    ...@......
    ...@......
    ...@......
    ...@......
    ...@......
    ...@......
    ...@......
    ..........
    ..........
    ..........
    ..........

u+0067:
LATIN SMALL LETTER G:
    ..........
    ..........
    ..........
    ..........
    ..........
    ..........
    ..........
    ..@@@@.@..
    .@....@@..
    .@.....@..
    .@.....@..
    .@.....@..
    .@....@@..
    ..@@@@.@..
    .......@..
    .......@..
    .@@@@@@...
    ..........
    ..........
    ..........

u+0068:
LATIN SMALL LETTER H:
    ..........
    ..........
    ..........
    ..........
    .@........
    .@........
    .@........
    .@..@@@...
    .@.@...@..
    .@@....@..
    .@.....@..
    .@.....@..
    .@.....@..
    .@.....@..
    ..........
    ..........
    ..........
    ..........
    ..........
    ..........

u+0069:
LATIN SMALL LETTER I:
    ..........
    ..........
    ..........
    ..........
    ....@.....
    ....@.....
    ..........
    .@@@@.....
    ....@.....
    ....@.....
    ....@.....
    ....@.....
    ....@.....
    .@@@@@@@..
    ..........
    ..........
    ..........
    ..........
    ..........
    ..........

u+006a:
LATIN SMALL LETTER J:
    ..........
    ..........
    ..........
    ..........
    ......@...
    ......@...
    ..........
    ...@@@@...
    ......@...
    ......@...
    ......@...
    ......@...
    ......@...
    ......@...
    ......@...
    ......@...
    .@@@@@....
    ..........
    ..........
    ..........

u+006b:
LATIN SMALL LETTER K:
    ..........
    ..........
    ..........
    ..........
    .@........
    .@........
    .@........
    .@.....@..
    .@....@...
    .@...@....
    .@..@.....
    .@.@.@....
    .@@...@...
    .@.....@..
    ..........
    ..........
    ..........
    ..........
    ..........
    ..........

u+006c:
LATIN SMALL LETTER L:
    ..........
    ..........
    ..........
    ..........
    .@@@@.....
    ....@.....
    ....@.....
    ....@.....
    ....@.....
    ....@.....
    ....@.....
    ....@.....
    ....@.....
    .@@@@@@@..
    ..........
    ..........
    ..........
    ..........
    ..........
    ..........

u+006d:
LATIN SMALL LETTER M:
    ..........
    ..........
    ..........
    ..........
    ..........
    ..........
    ..........
    .@.@@.@@..
    .@@.@@.@..
    .@..@..@..
    .@..@..@..
    .@..@..@..
    .@..@..@..
    .@..@..@..
    ..........
    ..........
    ..........
    ..........
    ..........
    ..........

u+006e:
LATIN SMALL LETTER N:
    ..........
    ..........
    ..........
    ..........
    ..........
    ..........
    ..........
    .@..@@@...
    .@.@...@..
    .@@....@..
    .@.....@..
    .@.....@..
    .@.....@..
    .@.....@..
    ..........
    ..........
    ..........
    ..........
    ..........
    ..........

u+006f:
LATIN SMALL LETTER O:
    ..........
    ..........
    ..........
    ..........
    ..........
    ..........
    ..........
    ..@@@@@...
    .@.....@..
    .@.....@..
    .@.....@..
    .@.....@..
    .@.....@..
    ..@@@@@...
    ..........
    ..........
    ..........
    ..........
    ..........
    ..........

u+0070:
LATIN SMALL LETTER P:
    ..........
    ..........
    ..........
    ..........
    ..........
    ..........
    ..........
    .@.@@@@...
    .@@....@..
    .@.....@..
    .@.....@..
    .@.....@..
    .@@....@..
    .@.@@@@...
    .@........
    .@........
    .@........
    .@........
    ..........
    ..........

u+0071:
LATIN SMALL LETTER Q:
    ..........
    ..........
    ..........
    ..........
    ..........
    ..........
    ..........
    ..@@@@@@..
    .@.....@..
    .@.....@..
    .@.....@..
    .@.....@..
    .@....@@..
    ..@@@@.@..
    .......@..
    .......@..
    .......@..
    .......@..
    ..........
    ..........

u+0072:
LATIN SMALL LETTER R:
    ..........
    ..........
    ..........
    ..........
    ..........
    ..........
    ..........
    .@..@@@...
    .@.@...@..
    .@@....@..
    .@........
    .@........
    .@........
    .@........
    ..........
    ..........
    ..........
    ..........
    ..........
    ..........

u+0073:
LATIN SMALL LETTER S:
    ..........
    ..........
    ..........
    ..........
    ..........
    ..........
    ..........
    ..@@@@@@..
    ..@.......
    ...@......
    ....@.....
    .....@....
    ......@...
    .@@@@@@...
    ..........
    ..........
    ..........
    ..........
    ..........
    ..........

u+0074:
LATIN SMALL LETTER T:
    ..........
    ..........
    ..........
    ..........
    ..........
    ...@......
    ...@......
    .@@@@@@@..
    ...@......
    ...@......
    ...@......
    ...@......
    ...@......
    ....@@@@..
    ..........
    ..........
    ..........
    ..........
    ..........
    ..........

u+0075:
LATIN SMALL LETTER U:
    ..........
    ..........
    ..........
    ..........
    ..........
    ..........
    ..........
    .@.....@..
    .@.....@..
    .@.....@..
    .@.....@..
    .@....@@..
    .@...@.@..
    ..@@@..@..
    ..........
    ..........
    ..........
    ..........
    ..........
    ..........

u+0076:
LATIN SMALL LETTER V:
    ..........
    ..........
    ..........
    ..........
    ..........
    ..........
    ..........
    .@.....@..
    .@.....@..
    ..@...@...
    ..@...@...
    ...@.@....
    ...@.@....
    ....@.....
    ..........
    ..........
    ..........
    ..........
    ..........
    ..........

u+0077:
LATIN SMALL LETTER W:
    ..........
    ..........
    ..........
    ..........
    ..........
    ..........
    ..........
    .@.....@..
    .@.....@..
    .@.....@..
    .@..@..@..
    .@..@..@..
    .@.@.@.@..
    .@@...@@..
    ..........
    ..........
    ..........
    ..........
    ..........
    ..........

u+0078:
LATIN SMALL LETTER X:
    ..........
    ..........
    ..........
    ..........
    ..........
    ..........
    ..........
    .@.....@..
    .@.....@..
    ..@...@...
    ...@@@....
    ..@...@...
    .@.....@..
    .@.....@..
    ..........
    ..........
    ..........
    ..........
    ..........
    ..........

u+0079:
LATIN SMALL LETTER Y:
    ..........
    ..........
    ..........
    ..........
    ..........
    ..........
    ..........
    .@.....@..
    .@.....@..
    .@.....@..
    .@.....@..
    .@.....@..
    .@....@@..
    ..@@@@.@..
    .......@..
    .......@..
    .@@@@@@...
    ..........
    ..........
    ..........

u+007a:
LATIN SMALL LETTER Z:
    ..........
    ..........
    ..........
    ..........
    ..........
    ..........
    ..........
    .@@@@@@@..
    ......@...
    .....@....
    ....@.....
    ...@......
    ..@.......
    .@@@@@@@..
    ..........
    ..........
    ..........
    ..........
    ..........
    ..........

u+007b:
LEFT CURLY BRACKET:
    ..........
    ..........
    ....@@@...
    ...@......
    ...@......
    ...@......
    ...@......
    ...@......
    ...@......
    .@@.......
    ...@......
    ...@......
    ...@......
    ...@......
    ...@......
    ...@......
    ...@......
    ....@@@...
    ..........
    ..........

u+007c:
VERTICAL LINE:
    ..........
    ..........
    ..........
    ....@.....
    ....@.....
    ....@.....
    ....@.....
    ....@.....
    ....@.....
    ....@.....
    ....@.....
    ....@.....
    ....@.....
    ....@.....
    ....@.....
    ....@.....
    ....@.....
    ..........
    ..........
    ..........

u+007d:
RIGHT CURLY BRACKET:
    ..........
    ..........
    .@@@......
    ....@.....
    ....@.....
    ....@.....
    ....@.....
    ....@.....
    ....@.....
    .....@@...
    ....@.....
    ....@.....
    ....@.....
    ....@.....
    ....@.....
    ....@.....
    ....@.....
    .@@@......
    ..........
    ..........

u+007e:
TILDE:
    ..........
    ..........
    ..........
    ..........
    ..........
    ..........
    ..........
    ..........
    ..@@......
    .@..@..@..
    .....@@...
    ..........
    ..........
    ..........
    ..........
    ..........
    ..........
    ..........
    ..........
    ..........

u+00a0:
NO-BREAK SPACE:
    ..........
    ..........
    ..........
    ..........
    ..........
    ..........
    ..........
    ..........
    ..........
    ..........
    ..........
    ..........
    ..........
    ..........
    ..........
    ..........
    ..........
    ..........
    ..........
    ..........

u+00a1:
INVERTED EXCLAMATION MARK:
    ..........
    ..........
    ..........
    ..........
    ....@.....
    ....@.....
    ..........
    ..........
    ....@.....
    ....@.....
    ....@.....
    ....@.....
    ....@.....
    ....@.....
    ..........
    ..........
    ..........
    ..........
    ..........
    ..........

u+00a2:
CENT SIGN:
    ..........
    ..........
    ..........
    ..........
    ..........
    ....@.....
    ....@.....
    ..@@@@@...
    .@..@..@..
    .@..@.....
    .@..@.....
    .@..@.....
    .@..@..@..
    ..@@@@@...
    ....@.....
    ....@.....
    ..........
    ..........
    ..........
    ..........

u+00a3:
POUND SIGN:
    ..........
    ..........
    ..........
    ..........
    ..........
    ....@@@...
    ...@...@..
    ...@......
    ...@......
    .@@@@@@...
    ...@......
    ...@......
    ...@......
    .@@@@@@@..
    ..........
    ..........
    ..........
    ..........
    ..........
    ..........

u+00a4:
CURRENCY SIGN:
    ..........
    ..........
    ..........
    ..........
    ..........
    ..........
    ..........
    .@.....@..
    ..@@@@@...
    ..@...@...
    ..@...@...
    ..@...@...
    ..@@@@@...
    .@.....@..
    ..........
    ..........
    ..........
    ..........
    ..........
    ..........

u+00a5:
YEN SIGN:
    ..........
    ..........
    ..........
    ..........
    ..........
    .@.....@..
    ..@...@...
    ...@.@....
    ....@.....
    ..@@@@@...
    ....@.....
    ..@@@@@...
    ....@.....
    ....@.....
    ..........
    ..........
    ..........
    ..........
    ..........
    ..........

u+00a6:
BROKEN BAR:
    ..........
    ..........
    ..........
    ..........
    ....@.....
    ....@.....
    ....@.....
    ....@.....
    ..........
    ..........
    ..........
    ....@.....
    ....@.....
    ....@.....
    ....@.....
    ..........
    ..........
    ..........
    ..........
    ..........

u+00a7:
SECTION SIGN:
    ..........
    ..........
    ..........
    ..........
    ..@@@@....
    .@....@...
    .@........
    ..@@@.....
    .@...@....
    .@....@...
    ..@...@...
    ...@@@....
    ......@...
    .@....@...
    ..@@@@....
    ..........
    ..........
    ..........
    ..........
    ..........

u+00a8:
DIAERESIS:
    ..........
    ..........
    ..@...@...
    ..@...@...
    ..........
    ..........
    ..........
    ..........
    ..........
    ..........
    ..........
    ..........
    ..........
    ..........
    ..........
    ..........
    ..........
    ..........
    ..........
    ..........

u+00a9:
COPYRIGHT SIGN:
    ..........
    ..........
    ..........
    ..........
    ..........
    ..........
    ..@@@@@@..
    .@......@.
    .@..@@@.@.
    .@.@....@.
    .@.@....@.
    .@..@@@.@.
    .@......@.
    ..@@@@@@..
    ..........
    ..........
    ..........
    ..........
    ..........
    ..........

u+00aa:
FEMININE ORDINAL INDICATOR:
    ..........
    ..........
    ..........
    ..........
    ..........
    ..@@@@....
    ......@...
    ..@@@@@...
    .@....@...
    .@....@...
    ..@@@@@...
    ..........
    .@@@@@@...
    ..........
    ..........
    ..........
    ..........
    ..........
    ..........
    ..........

u+00ab:
LEFT-POINTING DOUBLE ANGLE QUOTATION MARK:
    ..........
    ..........
    ..........
    ..........
    ..........
    ..........
    ..........
    ....@..@..
    ...@..@...
    ..@..@....
    .@..@.....
    ..@..@....
    ...@..@...
    ....@..@..
    ..........
    ..........
    ..........
    ..........
    ..........
    ..........

u+00ac:
NOT SIGN:
    ..........
    ..........
    ..........
    ..........
    ..........
    ..........
    ..........
    ..........
    .@@@@@@@..
    .......@..
    .......@..
    .......@..
    ..........
    ..........
    ..........
    ..........
    ..........
    ..........
    ..........
    ..........

u+00ad:
SOFT HYPHEN:
    ..........
    ..........
    ..........
    ..........
    ..........
    ..........
    ..........
    ..........
    ..........
    .@@@@@@@..
    ..........
    ..........
    ..........
    ..........
    ..........
    ..........
    ..........
    ..........
    ..........
    ..........

u+00ae:
REGISTERED SIGN:
    ..........
    ..........
    ..........
    ..........
    ..........
    ..........
    ..@@@@@@..
    .@......@.
    .@.@@@..@.
    .@.@..@.@.
    .@.@@@..@.
    .@.@..@.@.
    .@......@.
    ..@@@@@@..
    ..........
    ..........
    ..........
    ..........
    ..........
    ..........

u+00af:
MACRON:
    ..........
    ..........
    ..........
    .@@@@@@@..
    ..........
    ..........
    ..........
    ..........
    ..........
    ..........
    ..........
    ..........
    ..........
    ..........
    ..........
    ..........
    ..........
    ..........
    ..........
    ..........

u+00b0:
DEGREE SIGN:
    ..........
    ..........
    ...@@.....
    ..@..@....
    ..@..@....
    ...@@.....
    ..........
    ..........
    ..........
    ..........
    ..........
    ..........
    ..........
    ..........
    ..........
    ..........
    ..........
    ..........
    ..........
    ..........

u+00b1:
PLUS-MINUS SIGN:
    ..........
    ..........
    ..........
    ..........
    ..........
    ..........
    ..........
    ....@.....
    ....@.....
    ..@@@@@...
    ....@.....
    ....@.....
    ..........
    ..@@@@@...
    ..........
    ..........
    ..........
    ..........
    ..........
    ..........

u+00b2:
SUPERSCRIPT TWO:
    ..........
    ..........
    ..........
    ..........
    ...@@.....
    ..@..@....
    ....@.....
    ...@......
    ..@@@@....
    ..........
    ..........
    ..........
    ..........
    ..........
    ..........
    ..........
    ..........
    ..........
    ..........
    ..........

u+00b3:
SUPERSCRIPT THREE:
    ..........
    ..........
    ..........
    ..........
    ..@@@.....
    .....@....
    ...@@.....
    .....@....
    ..@@@.....
    ..........
    ..........
    ..........
    ..........
    ..........
    ..........
    ..........
    ..........
    ..........
    ..........
    ..........

u+00b4:
ACUTE ACCENT:
    ..........
    ..........
    ..........
    .....@....
    ....@.....
    ...@......
    ..........
    ..........
    ..........
    ..........
    ..........
    ..........
    ..........
    ..........
    ..........
    ..........
    ..........
    ..........
    ..........
    ..........

u+00b5:
MICRO SIGN:
    ..........
    ..........
    ..........
    ..........
    ..........
    ..........
    ..........
    .@.....@..
    .@.....@..
    .@.....@..
    .@.....@..
    .@.....@..
    .@....@@..
    .@@@@@.@..
    .@........
    .@........
    .@........
    .@........
    ..........
    ..........

u+00b6:
PILCROW SIGN:
    ..........
    ..........
    ..........
    ..........
    ..........
    ..@@@@@@..
    .@..@..@..
    .@..@..@..
    .@..@..@..
    ..@@@..@..
    ....@..@..
    ....@..@..
    ....@..@..
    ....@..@..
    ..........
    ..........
    ..........
    ..........
    ..........
    ..........

u+00b7:
MIDDLE DOT:
    ..........
    ..........
    ..........
    ..........
    ..........
    ..........
    ..........
    ..........
    ..........
    ...@@.....
    ...@@.....
    ..........
    ..........
    ..........
    ..........
    ..........
    ..........
    ..........
    ..........
    ..........

u+00b8:
CEDILLA:
    ..........
    ..........
    ..........
    ..........
    ..........
    ..........
    ..........
    ..........
    ..........
    ..........
    ..........
    ..........
    ..........
    ..........
    ....@.....
    .....@....
    ...@@.....
    ..........
    ..........
    ..........

u+00b9:
SUPERSCRIPT ONE:
    ..........
    ..........
    ..........
    ..........
    ....@.....
    ...@@.....
    ....@.....
    ....@.....
    ...@@@....
    ..........
    ..........
    ..........
    ..........
    ..........
    ..........
    ..........
    ..........
    ..........
    ..........
    ..........

u+00ba:
MASCULINE ORDINAL INDICATOR:
    ..........
    ..........
    ..........
    ..........
    ...@@@....
    ..@...@...
    ..@...@...
    ..@...@...
    ...@@@....
    ..........
    ..@@@@@...
    ..........
    ..........
    ..........
    ..........
    ..........
    ..........
    ..........
    ..........
    ..........

u+00bb:
RIGHT-POINTING DOUBLE ANGLE QUOTATION MARK:
    ..........
    ..........
    ..........
    ..........
    ..........
    ..........
    ..........
    .@..@.....
    ..@..@....
    ...@..@...
    ....@..@..
    ...@..@...
    ..@..@....
    .@..@.....
    ..........
    ..........
    ..........
    ..........
    ..........
    ..........

u+00bc:
VULGAR FRACTION ONE QUARTER:
    ..........
    ..........
    ..........
    ..........
    ..@.......
    .@@.......
    ..@.......
    ..@....@..
    .@@@..@...
    .....@....
    ....@..@..
    ...@..@@..
    ..@..@.@..
    .@..@@@@..
    .......@..
    .......@..
    ..........
    ..........
    ..........
    ..........

u+00bd:
VULGAR FRACTION ONE HALF:
    ..........
    ..........
    ..........
    ..........
    ..@.......
    .@@.......
    ..@.......
    ..@....@..
    .@@@..@...
    .....@....
    ....@.....
    ...@.@@...
    ..@.@..@..
    .@....@...
    .....@....
    ....@@@@..
    ..........
    ..........
    ..........
    ..........

u+00be:
VULGAR FRACTION THREE QUARTERS:
    ..........
    ..........
    ..........
    ..........
    .@@@......
    ....@.....
    ..@@......
    ....@..@..
    .@@@..@...
    .....@....
    ....@..@..
    ...@..@@..
    ..@..@.@..
    .@..@@@@..
    .......@..
    .......@..
    ..........
    ..........
    ..........
    ..........

u+00bf:
INVERTED QUESTION MARK:
    ..........
    ..........
    ..........
    ..........
    ....@.....
    ....@.....
    ..........
    ..........
    ....@.....
    ...@......
    ..@.......
    .@........
    .@....@...
    ..@@@@....
    ..........
    ..........
    ..........
    ..........
    ..........
    ..........

u+00c0:
LATIN CAPITAL LETTER A WITH GRAVE:
    ..........
    ..........
    ...@......
    ....@.....
    ..........
    ..@@@@@...
    .@.....@..
    .@.....@..
    .@.....@..
    .@.....@..
    .@@@@@@@..
    .@.....@..
    .@.....@..
    .@.....@..
    ..........
    ..........
    ..........
    ..........
    ..........
    ..........

u+00c1:
LATIN CAPITAL LETTER A WITH ACUTE:
    ..........
    ..........
    .....@....
    ....@.....
    ..........
    ..@@@@@...
    .@.....@..
    .@.....@..
    .@.....@..
    .@.....@..
    .@@@@@@@..
    .@.....@..
    .@.....@..
    .@.....@..
    ..........
    ..........
    ..........
    ..........
    ..........
    ..........

u+00c2:
LATIN CAPITAL LETTER A WITH CIRCUMFLEX:
    ..........
    ..........
    ....@.....
    ...@.@....
    ..........
    ..@@@@@...
    .@.....@..
    .@.....@..
    .@.....@..
    .@.....@..
    .@@@@@@@..
    .@.....@..
    .@.....@..
    .@.....@..
    ..........
    ..........
    ..........
    ..........
    ..........
    ..........

u+00c3:
LATIN CAPITAL LETTER A WITH TILDE:
    ..........
    ..........
    ...@@.@...
    ..@..@....
    ..........
    ..@@@@@...
    .@.....@..
    .@.....@..
    .@.....@..
    .@.....@..
    .@@@@@@@..
    .@.....@..
    .@.....@..
    .@.....@..
    ..........
    ..........
    ..........
    ..........
    ..........
    ..........

u+00c4:
LATIN CAPITAL LETTER A WITH DIAERESIS:
    ..........
    ..........
    ..@...@...
    ..@...@...
    ..........
    ..@@@@@...
    .@.....@..
    .@.....@..
    .@.....@..
    .@.....@..
    .@@@@@@@..
    .@.....@..
    .@.....@..
    .@.....@..
    ..........
    ..........
    ..........
    ..........
    ..........
    ..........

u+00c5:
LATIN CAPITAL LETTER A WITH RING ABOVE:
    ..........
    ....@.....
    ...@.@....
    ....@.....
    ..........
    ..@@@@@...
    .@.....@..
    .@.....@..
    .@.....@..
    .@.....@..
    .@@@@@@@..
    .@.....@..
    .@.....@..
    .@.....@..
    ..........
    ..........
    ..........
    ..........
    ..........
    ..........

u+00c6:
LATIN CAPITAL LETTER AE:
    ..........
    ..........
    ..........
    ..........
    ..........
    ..@@@@@@..
    .@..@.....
    .@..@.....
    .@..@.....
    .@@@@@@@..
    .@..@.....
    .@..@.....
    .@..@.....
    .@..@@@@..
    ..........
    ..........
    ..........
    ..........
    ..........
    ..........

u+00c7:
LATIN CAPITAL LETTER C WITH CEDILLA:
    ..........
    ..........
    ..........
    ..........
    ..........
    ...@@@@...
    ..@....@..
    .@........
    .@........
    .@........
    .@........
    .@........
    ..@....@..
    ...@@@@...
    ....@.....
    ...@......
    ..........
    ..........
    ..........
    ..........

u+00c8:
LATIN CAPITAL LETTER E WITH GRAVE:
    ..........
    ..........
    ...@......
    ....@.....
    ..........
    .@@@@@@@..
    .@........
    .@........
    .@........
    .@@@@@....
    .@........
    .@........
    .@........
    .@@@@@@@..
    ..........
    ..........
    ..........
    ..........
    ..........
    ..........

u+00c9:
LATIN CAPITAL LETTER E WITH ACUTE:
    ..........
    ..........
    ....@.....
    ...@......
    ..........
    .@@@@@@@..
    .@........
    .@........
    .@........
    .@@@@@....
    .@........
    .@........
    .@........
    .@@@@@@@..
    ..........
    ..........
    ..........
    ..........
    ..........
    ..........

u+00ca:
LATIN CAPITAL LETTER E WITH CIRCUMFLEX:
    ..........
    ..........
    ...@@.....
    ..@..@....
    ..........
    .@@@@@@@..
    .@........
    .@........
    .@........
    .@@@@@....
    .@........
    .@........
    .@........
    .@@@@@@@..
    ..........
    ..........
    ..........
    ..........
    ..........
    ..........

u+00cb:
LATIN CAPITAL LETTER E WITH DIAERESIS:
    ..........
    ..........
    ..@...@...
    ..@...@...
    ..........
    .@@@@@@@..
    .@........
    .@........
    .@........
    .@@@@@....
    .@........
    .@........
    .@........
    .@@@@@@@..
    ..........
    ..........
    ..........
    ..........
    ..........
    ..........

u+00cc:
LATIN CAPITAL LETTER I WITH GRAVE:
    ..........
    ..........
    ...@......
    ....@.....
    ..........
    .@@@@@@@..
    ....@.....
    ....@.....
    ....@.....
    ....@.....
    ....@.....
    ....@.....
    ....@.....
    .@@@@@@@..
    ..........
    ..........
    ..........
    ..........
    ..........
    ..........

u+00cd:
LATIN CAPITAL LETTER I WITH ACUTE:
    ..........
    ..........
    .....@....
    ....@.....
    ..........
    .@@@@@@@..
    ....@.....
    ....@.....
    ....@.....
    ....@.....
    ....@.....
    ....@.....
    ....@.....
    .@@@@@@@..
    ..........
    ..........
    ..........
    ..........
    ..........
    ..........

u+00ce:
LATIN CAPITAL LETTER I WITH CIRCUMFLEX:
    ..........
    ..........
    ....@.....
    ...@.@....
    ..........
    .@@@@@@@..
    ....@.....
    ....@.....
    ....@.....
    ....@.....
    ....@.....
    ....@.....
    ....@.....
    .@@@@@@@..
    ..........
    ..........
    ..........
    ..........
    ..........
    ..........

u+00cf:
LATIN CAPITAL LETTER I WITH DIAERESIS:
    ..........
    ..........
    ..@...@...
    ..@...@...
    ..........
    .@@@@@@@..
    ....@.....
    ....@.....
    ....@.....
    ....@.....
    ....@.....
    ....@.....
    ....@.....
    .@@@@@@@..
    ..........
    ..........
    ..........
    ..........
    ..........
    ..........

u+00d0:
LATIN CAPITAL LETTER ETH:
    ..........
    ..........
    ..........
    ..........
    ..........
    .@@@@@....
    .@....@...
    .@.....@..
    .@.....@..
    @@@@...@..
    .@.....@..
    .@.....@..
    .@....@...
    .@@@@@....
    ..........
    ..........
    ..........
    ..........
    ..........
    ..........

u+00d1:
LATIN CAPITAL LETTER N WITH TILDE:
    ..........
    ..........
    ...@@.@...
    ..@..@....
    ..........
    .@.....@..
    .@@....@..
    .@.@...@..
    .@..@..@..
    .@...@.@..
    .@....@@..
    .@.....@..
    .@.....@..
    .@.....@..
    ..........
    ..........
    ..........
    ..........
    ..........
    ..........

u+00d2:
LATIN CAPITAL LETTER O WITH GRAVE:
    ..........
    ..........
    ...@......
    ....@.....
    ..........
    ..@@@@@...
    .@.....@..
    .@.....@..
    .@.....@..
    .@.....@..
    .@.....@..
    .@.....@..
    .@.....@..
    ..@@@@@...
    ..........
    ..........
    ..........
    ..........
    ..........
    ..........

u+00d3:
LATIN CAPITAL LETTER O WITH ACUTE:
    ..........
    ..........
    .....@....
    ....@.....
    ..........
    ..@@@@@...
    .@.....@..
    .@.....@..
    .@.....@..
    .@.....@..
    .@.....@..
    .@.....@..
    .@.....@..
    ..@@@@@...
    ..........
    ..........
    ..........
    ..........
    ..........
    ..........

u+00d4:
LATIN CAPITAL LETTER O WITH CIRCUMFLEX:
    ..........
    ..........
    ....@.....
    ...@.@....
    ..........
    ..@@@@@...
    .@.....@..
    .@.....@..
    .@.....@..
    .@.....@..
    .@.....@..
    .@.....@..
    .@.....@..
    ..@@@@@...
    ..........
    ..........
    ..........
    ..........
    ..........
    ..........

u+00d5:
LATIN CAPITAL LETTER O WITH TILDE:
    ..........
    ..........
    ...@@.@...
    ..@..@....
    ..........
    ..@@@@@...
    .@.....@..
    .@.....@..
    .@.....@..
    .@.....@..
    .@.....@..
    .@.....@..
    .@.....@..
    ..@@@@@...
    ..........
    ..........
    ..........
    ..........
    ..........
    ..........

u+00d6:
LATIN CAPITAL LETTER O WITH DIAERESIS:
    ..........
    ..........
    ..@...@...
    ..@...@...
    ..........
    ..@@@@@...
    .@.....@..
    .@.....@..
    .@.....@..
    .@.....@..
    .@.....@..
    .@.....@..
    .@.....@..
    ..@@@@@...
    ..........
    ..........
    ..........
    ..........
    ..........
    ..........

u+00d7:
MULTIPLICATION SIGN:
    ..........
    ..........
    ..........
    ..........
    ..........
    ..........
    ..........
    ..........
    ..@...@...
    ...@.@....
    ....@.....
    ...@.@....
    ..@...@...
    ..........
    ..........
    ..........
    ..........
    ..........
    ..........
    ..........

u+00d8:
LATIN CAPITAL LETTER O WITH STROKE:
    ..........
    ..........
    ..........
    ..........
    ..........
    ..@@@@@.@.
    .@.....@..
    .@....@@..
    .@...@.@..
    .@..@..@..
    .@.@...@..
    .@@....@..
    .@.....@..
    @.@@@@@...
    ..........
    ..........
    ..........
    ..........
    ..........
    ..........

u+00d9:
LATIN CAPITAL LETTER U WITH GRAVE:
    ..........
    ..........
    ...@......
    ....@.....
    ..........
    .@.....@..
    .@.....@..
    .@.....@..
    .@.....@..
    .@.....@..
    .@.....@..
    .@.....@..
    .@.....@..
    ..@@@@@...
    ..........
    ..........
    ..........
    ..........
    ..........
    ..........

u+00da:
LATIN CAPITAL LETTER U WITH ACUTE:
    ..........
    ..........
    .....@....
    ....@.....
    ..........
    .@.....@..
    .@.....@..
    .@.....@..
    .@.....@..
    .@.....@..
    .@.....@..
    .@.....@..
    .@.....@..
    ..@@@@@...
    ..........
    ..........
    ..........
    ..........
    ..........
    ..........

u+00db:
LATIN CAPITAL LETTER U WITH CIRCUMFLEX:
    ..........
    ..........
    ....@.....
    ...@.@....
    ..........
    .@.....@..
    .@.....@..
    .@.....@..
    .@.....@..
    .@.....@..
    .@.....@..
    .@.....@..
    .@.....@..
    ..@@@@@...
    ..........
    ..........
    ..........
    ..........
    ..........
    ..........

u+00dc:
LATIN CAPITAL LETTER U WITH DIAERESIS:
    ..........
    ..........
    ..@...@...
    ..@...@...
    ..........
    .@.....@..
    .@.....@..
    .@.....@..
    .@.....@..
    .@.....@..
    .@.....@..
    .@.....@..
    .@.....@..
    ..@@@@@...
    ..........
    ..........
    ..........
    ..........
    ..........
    ..........

u+00dd:
LATIN CAPITAL LETTER Y WITH ACUTE:
    ..........
    ..........
    .....@....
    ....@.....
    ..........
    .@.....@..
    .@.....@..
    ..@...@...
    ...@.@....
    ....@.....
    ....@.....
    ....@.....
    ....@.....
    ....@.....
    ..........
    ..........
    ..........
    ..........
    ..........
    ..........

u+00de:
LATIN CAPITAL LETTER THORN:
    ..........
    ..........
    ..........
    ..........
    ..........
    .@........
    .@........
    .@@@@@....
    .@....@...
    .@....@...
    .@....@...
    .@@@@@....
    .@........
    .@........
    ..........
    ..........
    ..........
    ..........
    ..........
    ..........

u+00df:
LATIN SMALL LETTER SHARP S:
    ..........
    ..........
    ..........
    ..........
    ..........
    ..@@@.....
    .@...@....
    .@...@....
    .@..@.....
    .@...@....
    .@....@...
    .@.....@..
    .@.....@..
    .@.@@@@...
    .@........
    .@........
    ..........
    ..........
    ..........
    ..........

u+00e0:
LATIN SMALL LETTER A WITH GRAVE:
    ..........
    ..........
    ..........
    ..........
    ....@.....
    .....@....
    ..........
    ..@@@@@...
    .......@..
    .......@..
    ..@@@@@@..
    .@.....@..
    .@....@@..
    ..@@@@.@..
    ..........
    ..........
    ..........
    ..........
    ..........
    ..........

u+00e1:
LATIN SMALL LETTER A WITH ACUTE:
    ..........
    ..........
    ..........
    ..........
    .....@....
    ....@.....
    ..........
    ..@@@@@...
    .......@..
    .......@..
    ..@@@@@@..
    .@.....@..
    .@....@@..
    ..@@@@.@..
    ..........
    ..........
    ..........
    ..........
    ..........
    ..........

u+00e2:
LATIN SMALL LETTER A WITH CIRCUMFLEX:
    ..........
    ..........
    ..........
    ..........
    ....@.....
    ...@.@....
    ..........
    ..@@@@@...
    .......@..
    .......@..
    ..@@@@@@..
    .@.....@..
    .@....@@..
    ..@@@@.@..
    ..........
    ..........
    ..........
    ..........
    ..........
    ..........

u+00e3:
LATIN SMALL LETTER A WITH TILDE:
    ..........
    ..........
    ..........
    ..........
    ...@@.@...
    ..@..@....
    ..........
    ..@@@@@...
    .......@..
    .......@..
    ..@@@@@@..
    .@.....@..
    .@....@@..
    ..@@@@.@..
    ..........
    ..........
    ..........
    ..........
    ..........
    ..........

u+00e4:
LATIN SMALL LETTER A WITH DIAERESIS:
    ..........
    ..........
    ..........
    ..........
    ..@...@...
    ..@...@...
    ..........
    ..@@@@@...
    .......@..
    .......@..
    ..@@@@@@..
    .@.....@..
    .@....@@..
    ..@@@@.@..
    ..........
    ..........
    ..........
    ..........
    ..........
    ..........

u+00e5:
LATIN SMALL LETTER A WITH RING ABOVE:
    ..........
    ..........
    ..........
    ....@@....
    ...@..@...
    ....@@....
    ..........
    ..@@@@@...
    .......@..
    .......@..
    ..@@@@@@..
    .@.....@..
    .@....@@..
    ..@@@@.@..
    ..........
    ..........
    ..........
    ..........
    ..........
    ..........

u+00e6:
LATIN SMALL LETTER AE:
    ..........
    ..........
    ..........
    ..........
    ..........
    ..........
    ..........
    ..@@@@@...
    ....@..@..
    ....@..@..
    ..@@@@@@..
    .@..@.....
    .@..@.....
    ..@@.@@@..
    ..........
    ..........
    ..........
    ..........
    ..........
    ..........

u+00e7:
LATIN SMALL LETTER C WITH CEDILLA:
    ..........
    ..........
    ..........
    ..........
    ..........
    ..........
    ..........
    ..@@@@@...
    .@.....@..
    .@........
    .@........
    .@........
    .@.....@..
    ..@@@@@...
    ....@.....
    ...@......
    ..........
    ..........
    ..........
    ..........

u+00e8:
LATIN SMALL LETTER E WITH GRAVE:
    ..........
    ..........
    ..........
    ..........
    ..........
    ...@......
    ....@.....
    ..@@@@@...
    .@.....@..
    .@.....@..
    .@@@@@@@..
    .@........
    .@........
    ..@@@@@@..
    ..........
    ..........
    ..........
    ..........
    ..........
    ..........

u+00e9:
LATIN SMALL LETTER E WITH ACUTE:
    ..........
    ..........
    ..........
    ..........
    .....@....
    ....@.....
    ..........
    ..@@@@@...
    .@.....@..
    .@.....@..
    .@@@@@@@..
    .@........
    .@........
    ..@@@@@@..
    ..........
    ..........
    ..........
    ..........
    ..........
    ..........

u+00ea:
LATIN SMALL LETTER E WITH CIRCUMFLEX:
    ..........
    ..........
    ..........
    ..........
    ....@.....
    ...@.@....
    ..........
    ..@@@@@...
    .@.....@..
    .@.....@..
    .@@@@@@@..
    .@........
    .@........
    ..@@@@@@..
    ..........
    ..........
    ..........
    ..........
    ..........
    ..........

u+00eb:
LATIN SMALL LETTER E WITH DIAERESIS:
    ..........
    ..........
    ..........
    ..........
    ..@...@...
    ..@...@...
    ..........
    ..@@@@@...
    .@.....@..
    .@.....@..
    .@@@@@@@..
    .@........
    .@........
    ..@@@@@@..
    ..........
    ..........
    ..........
    ..........
    ..........
    ..........

u+00ec:
LATIN SMALL LETTER I WITH GRAVE:
    ..........
    ..........
    ..........
    ..........
    ...@......
    ....@.....
    ..........
    .@@@@.....
    ....@.....
    ....@.....
    ....@.....
    ....@.....
    ....@.....
    .@@@@@@@..
    ..........
    ..........
    ..........
    ..........
    ..........
    ..........

u+00ed:
LATIN SMALL LETTER I WITH ACUTE:
    ..........
    ..........
    ..........
    ..........
    .....@....
    ....@.....
    ..........
    .@@@@.....
    ....@.....
    ....@.....
    ....@.....
    ....@.....
    ....@.....
    .@@@@@@@..
    ..........
    ..........
    ..........
    ..........
    ..........
    ..........

u+00ee:
LATIN SMALL LETTER I WITH CIRCUMFLEX:
    ..........
    ..........
    ..........
    ..........
    ....@.....
    ...@.@....
    ..........
    .@@@@.....
    ....@.....
    ....@.....
    ....@.....
    ....@.....
    ....@.....
    .@@@@@@@..
    ..........
    ..........
    ..........
    ..........
    ..........
    ..........

u+00ef:
LATIN SMALL LETTER I WITH DIAERESIS:
    ..........
    ..........
    ..........
    ..........
    ..@...@...
    ..@...@...
    ..........
    .@@@@.....
    ....@.....
    ....@.....
    ....@.....
    ....@.....
    ....@.....
    .@@@@@@@..
    ..........
    ..........
    ..........
    ..........
    ..........
    ..........

u+00f0:
LATIN SMALL LETTER ETH:
    ..........
    ..........
    ..........
    ...@.@....
    ....@.....
    ...@.@....
    ..........
    ..@@@@@...
    .@.....@..
    .@.....@..
    .@.....@..
    .@.....@..
    .@.....@..
    ..@@@@@...
    ..........
    ..........
    ..........
    ..........
    ..........
    ..........

u+00f1:
LATIN SMALL LETTER N WITH TILDE:
    ..........
    ..........
    ..........
    ..........
    ...@@.@...
    ..@..@....
    ..........
    .@..@@@...
    .@.@...@..
    .@@....@..
    .@.....@..
    .@.....@..
    .@.....@..
    .@.....@..
    ..........
    ..........
    ..........
    ..........
    ..........
    ..........

u+00f2:
LATIN SMALL LETTER O WITH GRAVE:
    ..........
    ..........
    ..........
    ..........
    ...@......
    ....@.....
    ..........
    ..@@@@@...
    .@.....@..
    .@.....@..
    .@.....@..
    .@.....@..
    .@.....@..
    ..@@@@@...
    ..........
    ..........
    ..........
    ..........
    ..........
    ..........

u+00f3:
LATIN SMALL LETTER O WITH ACUTE:
    ..........
    ..........
    ..........
    ..........
    .....@....
    ....@.....
    ..........
    ..@@@@@...
    .@.....@..
    .@.....@..
    .@.....@..
    .@.....@..
    .@.....@..
    ..@@@@@...
    ..........
    ..........
    ..........
    ..........
    ..........
    ..........

u+00f4:
LATIN SMALL LETTER O WITH CIRCUMFLEX:
    ..........
    ..........
    ..........
    ..........
    ....@.....
    ...@.@....
    ..........
    ..@@@@@...
    .@.....@..
    .@.....@..
    .@.....@..
    .@.....@..
    .@.....@..
    ..@@@@@...
    ..........
    ..........
    ..........
    ..........
    ..........
    ..........

u+00f5:
LATIN SMALL LETTER O WITH TILDE:
    ..........
    ..........
    ..........
    ..........
    ...@@.@...
    ..@..@....
    ..........
    ..@@@@@...
    .@.....@..
    .@.....@..
    .@.....@..
    .@.....@..
    .@.....@..
    ..@@@@@...
    ..........
    ..........
    ..........
    ..........
    ..........
    ..........

u+00f6:
LATIN SMALL LETTER O WITH DIAERESIS:
    ..........
    ..........
    ..........
    ..........
    ..@...@...
    ..@...@...
    ..........
    ..@@@@@...
    .@.....@..
    .@.....@..
    .@.....@..
    .@.....@..
    .@.....@..
    ..@@@@@...
    ..........
    ..........
    ..........
    ..........
    ..........
    ..........

u+00f7:
DIVISION SIGN:
    ..........
    ..........
    ..........
    ..........
    ..........
    ..........
    ....@.....
    ....@.....
    ..........
    .@@@@@@@..
    ..........
    ....@.....
    ....@.....
    ..........
    ..........
    ..........
    ..........
    ..........
    ..........
    ..........

u+00f8:
LATIN SMALL LETTER O WITH STROKE:
    ..........
    ..........
    ..........
    ..........
    ..........
    ..........
    ........@.
    ..@@@@@@..
    .@....@@..
    .@...@.@..
    .@..@..@..
    .@.@...@..
    .@@....@..
    .@@@@@@...
    @.........
    ..........
    ..........
    ..........
    ..........
    ..........

u+00f9:
LATIN SMALL LETTER U WITH GRAVE:
    ..........
    ..........
    ..........
    ..........
    ...@......
    ....@.....
    ..........
    .@.....@..
    .@.....@..
    .@.....@..
    .@.....@..
    .@....@@..
    .@...@.@..
    ..@@@..@..
    ..........
    ..........
    ..........
    ..........
    ..........
    ..........

u+00fa:
LATIN SMALL LETTER U WITH ACUTE:
    ..........
    ..........
    ..........
    ..........
    .....@....
    ....@.....
    ..........
    .@.....@..
    .@.....@..
    .@.....@..
    .@.....@..
    .@....@@..
    .@...@.@..
    ..@@@..@..
    ..........
    ..........
    ..........
    ..........
    ..........
    ..........

u+00fb:
LATIN SMALL LETTER U WITH CIRCUMFLEX:
    ..........
    ..........
    ..........
    ..........
    ....@.....
    ...@.@....
    ..........
    .@.....@..
    .@.....@..
    .@.....@..
    .@.....@..
    .@....@@..
    .@...@.@..
    ..@@@..@..
    ..........
    ..........
    ..........
    ..........
    ..........
    ..........

u+00fc:
LATIN SMALL LETTER U WITH DIAERESIS:
    ..........
    ..........
    ..........
    ..........
    ..@...@...
    ..@...@...
    ..........
    .@.....@..
    .@.....@..
    .@.....@..
    .@.....@..
    .@....@@..
    .@...@.@..
    ..@@@..@..
    ..........
    ..........
    ..........
    ..........
    ..........
    ..........

u+00fd:
LATIN SMALL LETTER Y WITH ACUTE:
    ..........
    ..........
    ..........
    ..........
    .....@....
    ....@.....
    ..........
    .@.....@..
    .@.....@..
    .@.....@..
    .@.....@..
    .@.....@..
    .@....@@..
    ..@@@@.@..
    .......@..
    .......@..
    .@@@@@@...
    ..........
    ..........
    ..........

u+00fe:
LATIN SMALL LETTER THORN:
    ..........
    ..........
    ..........
    ..........
    ..........
    ..........
    .@........
    .@........
    .@@@@@....
    .@....@...
    .@....@...
    .@....@...
    .@....@...
    .@@@@@....
    .@........
    .@........
    ..........
    ..........
    ..........
    ..........

u+00ff:
LATIN SMALL LETTER Y WITH DIAERESIS:
    ..........
    ..........
    ..........
    ..........
    ..@...@...
    ..@...@...
    ..........
    .@.....@..
    .@.....@..
    .@.....@..
    .@.....@..
    .@.....@..
    .@....@@..
    ..@@@@.@..
    .......@..
    .......@..
    .@@@@@@...
    ..........
    ..........
    ..........

u+014c:
LATIN CAPITAL LETTER O WITH MACRON:
    ..........
    ..........
    ..@@@@@...
    ..........
    ..........
    ..@@@@@...
    .@.....@..
    .@.....@..
    .@.....@..
    .@.....@..
    .@.....@..
    .@.....@..
    .@.....@..
    ..@@@@@...
    ..........
    ..........
    ..........
    ..........
    ..........
    ..........

u+014d:
LATIN SMALL LETTER O WITH MACRON:
    ..........
    ..........
    ..........
    ..........
    ..@@@@@...
    ..........
    ..........
    ..@@@@@...
    .@.....@..
    .@.....@..
    .@.....@..
    .@.....@..
    .@.....@..
    ..@@@@@...
    ..........
    ..........
    ..........
    ..........
    ..........
    ..........

u+2010:
HYPHEN:
    ..........
    ..........
    ..........
    ..........
    ..........
    ..........
    ..........
    ..........
    ..........
    ..@@@@@...
    ..........
    ..........
    ..........
    ..........
    ..........
    ..........
    ..........
    ..........
    ..........
    ..........

u+2011:
NON-BREAKING HYPHEN:
    ..........
    ..........
    ..........
    ..........
    ..........
    ..........
    ..........
    ..........
    ..........
    ..@@@@@...
    ..........
    ..........
    ..........
    ..........
    ..........
    ..........
    ..........
    ..........
    ..........
    ..........

u+2012:
FIGURE DASH:
    ..........
    ..........
    ..........
    ..........
    ..........
    ..........
    ..........
    ..........
    ..........
    .@@@@@@@..
    ..........
    ..........
    ..........
    ..........
    ..........
    ..........
    ..........
    ..........
    ..........
    ..........

u+2013:
EN DASH:
    ..........
    ..........
    ..........
    ..........
    ..........
    ..........
    ..........
    ..........
    ..........
    .@@@@@@@..
    ..........
    ..........
    ..........
    ..........
    ..........
    ..........
    ..........
    ..........
    ..........
    ..........

u+2014:
EM DASH:
    ..........
    ..........
    ..........
    ..........
    ..........
    ..........
    ..........
    ..........
    ..........
    .@@@@@@@@.
    ..........
    ..........
    ..........
    ..........
    ..........
    ..........
    ..........
    ..........
    ..........
    ..........

u+2015:
HORIZONTAL BAR:
    ..........
    ..........
    ..........
    ..........
    ..........
    ..........
    ..........
    ..........
    ..........
    @@@@@@@@@@
    ..........
    ..........
    ..........
    ..........
    ..........
    ..........
    ..........
    ..........
    ..........
    ..........

u+2016:
DOUBLE VERTICAL LINE:
    ..........
    ..........
    ..........
    ..........
    ..........
    ...@.@....
    ...@.@....
    ...@.@....
    ...@.@....
    ...@.@....
    ...@.@....
    ...@.@....
    ...@.@....
    ...@.@....
    ..........
    ..........
    ..........
    ..........
    ..........
    ..........

u+2017:
DOUBLE LOW LINE:
    ..........
    ..........
    ..........
    ..........
    ..........
    ..........
    ..........
    ..........
    ..........
    ..........
    ..........
    ..........
    ..........
    ..........
    ..........
    ..........
    ..........
    .@@@@@@@..
    ..........
    .@@@@@@@..

u+2018:
LEFT SINGLE QUOTATION MARK:
    ..........
    .....@....
    ....@.....
    ....@.....
    ....@.....
    ..........
    ..........
    ..........
    ..........
    ..........
    ..........
    ..........
    ..........
    ..........
    ..........
    ..........
    ..........
    ..........
    ..........
    ..........

u+2019:
RIGHT SINGLE QUOTATION MARK:
    ..........
    ....@.....
    ....@.....
    ....@.....
    ...@......
    ..........
    ..........
    ..........
    ..........
    ..........
    ..........
    ..........
    ..........
    ..........
    ..........
    ..........
    ..........
    ..........
    ..........
    ..........

u+201a:
SINGLE LOW-9 QUOTATION MARK:
    ..........
    ..........
    ..........
    ..........
    ..........
    ..........
    ..........
    ..........
    ..........
    ..........
    ..........
    ..........
    ....@.....
    ....@.....
    ....@.....
    ...@......
    ..........
    ..........
    ..........
    ..........

u+201b:
SINGLE HIGH-REVERSED-9 QUOTATION MARK:
    ..........
    ...@......
    ...@......
    ...@......
    ....@.....
    ..........
    ..........
    ..........
    ..........
    ..........
    ..........
    ..........
    ..........
    ..........
    ..........
    ..........
    ..........
    ..........
    ..........
    ..........

u+201c:
LEFT DOUBLE QUOTATION MARK:
    ..........
    ...@...@..
    ..@...@...
    ..@...@...
    ..@...@...
    ..........
    ..........
    ..........
    ..........
    ..........
    ..........
    ..........
    ..........
    ..........
    ..........
    ..........
    ..........
    ..........
    ..........
    ..........

u+201d:
RIGHT DOUBLE QUOTATION MARK:
    ..........
    ...@...@..
    ...@...@..
    ...@...@..
    ..@...@...
    ..........
    ..........
    ..........
    ..........
    ..........
    ..........
    ..........
    ..........
    ..........
    ..........
    ..........
    ..........
    ..........
    ..........
    ..........

u+201e:
DOUBLE LOW-9 QUOTATION MARK:
    ..........
    ..........
    ..........
    ..........
    ..........
    ..........
    ..........
    ..........
    ..........
    ..........
    ..........
    ..........
    ..@...@...
    ..@...@...
    ..@...@...
    .@...@....
    ..........
    ..........
    ..........
    ..........

u+201f:
DOUBLE HIGH-REVERSED-9 QUOTATION MARK:
    ..........
    .@...@....
    .@...@....
    .@...@....
    ..@...@...
    ..........
    ..........
    ..........
    ..........
    ..........
    ..........
    ..........
    ..........
    ..........
    ..........
    ..........
    ..........
    ..........
    ..........
    ..........

u+2020:
DAGGER:
    ..........
    ..........
    ..........
    ....@.....
    ....@.....
    .@@@@@@@..
    ....@.....
    ....@.....
    ....@.....
    ....@.....
    ....@.....
    ....@.....
    ....@.....
    ....@.....
    ..........
    ..........
    ..........
    ..........
    ..........
    ..........

u+2021:
DOUBLE DAGGER:
    ..........
    ..........
    ..........
    ....@.....
    ....@.....
    .@@@@@@@..
    ....@.....
    ....@.....
    ....@.....
    ....@.....
    ....@.....
    .@@@@@@@..
    ....@.....
    ....@.....
    ..........
    ..........
    ..........
    ..........
    ..........
    ..........

u+2022:
BULLET:
    ..........
    ..........
    ..........
    ..........
    ..........
    ..........
    ..........
    ..........
    ....@@....
    ...@@@@...
    ...@@@@...
    ....@@....
    ..........
    ..........
    ..........
    ..........
    ..........
    ..........
    ..........
    ..........

u+2026:
HORIZONTAL ELLIPSIS:
    ..........
    ..........
    ..........
    ..........
    ..........
    ..........
    ..........
    ..........
    ..........
    ..........
    ..........
    ..........
    .@..@..@..
    .@..@..@..
    ..........
    ..........
    ..........
    ..........
    ..........
    ..........

u+2030:
PER MILLE SIGN:
    ..........
    ..........
    ..........
    ..........
    .@@.......
    @..@......
    @..@..@...
    .@@..@....
    ....@.....
    ...@......
    ..@.@@.@@.
    .@.@..@..@
    @..@..@..@
    ....@@.@@.
    ..........
    ..........
    ..........
    ..........
    ..........
    ..........

u+2032:
PRIME:
    ..........
    ....@.....
    ....@.....
    ....@.....
    ....@.....
    ....@.....
    ..........
    ..........
    ..........
    ..........
    ..........
    ..........
    ..........
    ..........
    ..........
    ..........
    ..........
    ..........
    ..........
    ..........

u+2033:
DOUBLE PRIME:
    ..........
    ..@...@...
    ..@...@...
    ..@...@...
    ..@...@...
    ..@...@...
    ..........
    ..........
    ..........
    ..........
    ..........
    ..........
    ..........
    ..........
    ..........
    ..........
    ..........
    ..........
    ..........
    ..........

u+2039:
SINGLE LEFT-POINTING ANGLE QUOTATION MARK:
    ..........
    ..........
    ..........
    ..........
    ..........
    ......@...
    .....@....
    ....@.....
    ...@......
    ..@.......
    ...@......
    ....@.....
    .....@....
    ......@...
    ..........
    ..........
    ..........
    ..........
    ..........
    ..........

u+203a:
SINGLE RIGHT-POINTING ANGLE QUOTATION MARK:
    ..........
    ..........
    ..........
    ..........
    ..........
    ..@.......
    ...@......
    ....@.....
    .....@....
    ......@...
    .....@....
    ....@.....
    ...@......
    ..@.......
    ..........
    ..........
    ..........
    ..........
    ..........
    ..........

u+203c:
DOUBLE EXCLAMATION MARK:
    ..........
    ..........
    ..........
    ..........
    ..@...@...
    ..@...@...
    ..@...@...
    ..@...@...
    ..@...@...
    ..@...@...
    ..........
    ..........
    ..@...@...
    ..@...@...
    ..........
    ..........
    ..........
    ..........
    ..........
    ..........

u+203e:
OVERLINE:
    ..........
    .@@@@@@@..
    ..........
    ..........
    ..........
    ..........
    ..........
    ..........
    ..........
    ..........
    ..........
    ..........
    ..........
    ..........
    ..........
    ..........
    ..........
    ..........
    ..........
    ..........

u+20ac:
EURO SIGN:
    ..........
    ..........
    ..........
    ..........
    ..........
    ..@@@@@...
    .@.....@..
    .@........
    @@@@@@....
    .@........
    @@@@@.....
    .@........
    .@.....@..
    ..@@@@@...
    ..........
    ..........
    ..........
    ..........
    ..........
    ..........

u+2122:
TRADE MARK SIGN:
    ..........
    ..........
    ..........
    ..........
    ..........
    .@@@.@.@..
    ..@..@@@..
    ..@..@.@..
    ..@..@.@..
    ..........
    ..........
    ..........
    ..........
    ..........
    ..........
    ..........
    ..........
    ..........
    ..........
    ..........

u+2500:
BOX DRAWINGS LIGHT HORIZONTAL:
    ..........
    ..........
    ..........
    ..........
    ..........
    ..........
    ..........
    ..........
    ..........
    @@@@@@@@@@
    ..........
    ..........
    ..........
    ..........
    ..........
    ..........
    ..........
    ..........
    ..........
    ..........

u+2501:
BOX DRAWINGS HEAVY HORIZONTAL:
    ..........
    ..........
    ..........
    ..........
    ..........
    ..........
    ..........
    ..........
    ..........
    @@@@@@@@@@
    @@@@@@@@@@
    ..........
    ..........
    ..........
    ..........
    ..........
    ..........
    ..........
    ..........
    ..........

u+2502:
BOX DRAWINGS LIGHT VERTICAL:
    ....@.....
    ....@.....
    ....@.....
    ....@.....
    ....@.....
    ....@.....
    ....@.....
    ....@.....
    ....@.....
    ....@.....
    ....@.....
    ....@.....
    ....@.....
    ....@.....
    ....@.....
    ....@.....
    ....@.....
    ....@.....
    ....@.....
    ....@.....

u+2503:
BOX DRAWINGS HEAVY VERTICAL:
    ....@@....
    ....@@....
    ....@@....
    ....@@....
    ....@@....
    ....@@....
    ....@@....
    ....@@....
    ....@@....
    ....@@....
    ....@@....
    ....@@....
    ....@@....
    ....@@....
    ....@@....
    ....@@....
    ....@@....
    ....@@....
    ....@@....
    ....@@....

u+2504:
BOX DRAWINGS LIGHT HORIZONTAL:
    ..........
    ..........
    ..........
    ..........
    ..........
    ..........
    ..........
    ..........
    ..........
    @@.@@@.@@.
    ..........
    ..........
    ..........
    ..........
    ..........
    ..........
    ..........
    ..........
    ..........
    ..........

u+2505:
BOX DRAWINGS LIGHT HORIZONTAL:
    ..........
    ..........
    ..........
    ..........
    ..........
    ..........
    ..........
    ..........
    ..........
    @@.@@@.@@.
    @@.@@@.@@.
    ..........
    ..........
    ..........
    ..........
    ..........
    ..........
    ..........
    ..........
    ..........

u+2508:
BOX DRAWINGS LIGHT QUADRUPLE DASH HORIZONTAL:
    ..........
    ..........
    ..........
    ..........
    ..........
    ..........
    ..........
    ..........
    ..........
    @@.@.@@.@.
    ..........
    ..........
    ..........
    ..........
    ..........
    ..........
    ..........
    ..........
    ..........
    ..........

u+2509:
BOX DRAWINGS HEAVY QUADRUPLE DASH HORIZONTAL:
    ..........
    ..........
    ..........
    ..........
    ..........
    ..........
    ..........
    ..........
    ..........
    @@.@.@@.@.
    @@.@.@@.@.
    ..........
    ..........
    ..........
    ..........
    ..........
    ..........
    ..........
    ..........
    ..........

u+250a:
BOX DRAWINGS LIGHT QUADRUPLE DASH VERTICAL:
    ....@.....
    ....@.....
    ....@.....
    ....@.....
    ..........
    ....@.....
    ....@.....
    ....@.....
    ....@.....
    ..........
    ....@.....
    ....@.....
    ....@.....
    ....@.....
    ..........
    ....@.....
    ....@.....
    ....@.....
    ....@.....
    ..........

u+250b:
BOX DRAWINGS HEAVY QUADRUPLE DASH VERTICAL:
    ....@@....
    ....@@....
    ....@@....
    ....@@....
    ..........
    ....@@....
    ....@@....
    ....@@....
    ....@@....
    ..........
    ....@@....
    ....@@....
    ....@@....
    ....@@....
    ..........
    ....@@....
    ....@@....
    ....@@....
    ....@@....
    ..........

u+250c:
BOX DRAWINGS LIGHT DOWN AND RIGHT:
    ..........
    ..........
    ..........
    ..........
    ..........
    ..........
    ..........
    ..........
    ..........
    ....@@@@@@
    ....@.....
    ....@.....
    ....@.....
    ....@.....
    ....@.....
    ....@.....
    ....@.....
    ....@.....
    ....@.....
    ....@.....

u+250d:
BOX DRAWINGS DOWN LIGHT AND RIGHT HEAVY:
    ..........
    ..........
    ..........
    ..........
    ..........
    ..........
    ..........
    ..........
    ..........
    ....@@@@@@
    ....@@@@@@
    ....@.....
    ....@.....
    ....@.....
    ....@.....
    ....@.....
    ....@.....
    ....@.....
    ....@.....
    ....@.....

u+250e:
BOX DRAWINGS DOWN HEAVY AND RIGHT LIGHT:
    ..........
    ..........
    ..........
    ..........
    ..........
    ..........
    ..........
    ..........
    ..........
    ....@@@@@@
    ....@@....
    ....@@....
    ....@@....
    ....@@....
    ....@@....
    ....@@....
    ....@@....
    ....@@....
    ....@@....
    ....@@....

u+250f:
BOX DRAWINGS HEAVY DOWN AND RIGHT:
    ..........
    ..........
    ..........
    ..........
    ..........
    ..........
    ..........
    ..........
    ..........
    ....@@@@@@
    ....@@@@@@
    ....@@....
    ....@@....
    ....@@....
    ....@@....
    ....@@....
    ....@@....
    ....@@....
    ....@@....
    ....@@....

u+2510:
BOX DRAWINGS LIGHT DOWN AND LEFT:
    ..........
    ..........
    ..........
    ..........
    ..........
    ..........
    ..........
    ..........
    ..........
    @@@@@.....
    ....@.....
    ....@.....
    ....@.....
    ....@.....
    ....@.....
    ....@.....
    ....@.....
    ....@.....
    ....@.....
    ....@.....

u+2511:
BOX DRAWINGS DOWN LIGHT AND LEFT HEAVY:
    ..........
    ..........
    ..........
    ..........
    ..........
    ..........
    ..........
    ..........
    ..........
    @@@@@.....
    @@@@@.....
    ....@.....
    ....@.....
    ....@.....
    ....@.....
    ....@.....
    ....@.....
    ....@.....
    ....@.....
    ....@.....

u+2512:
BOX DRAWINGS DOWN HEAVY AND LEFT LIGHT:
    ..........
    ..........
    ..........
    ..........
    ..........
    ..........
    ..........
    ..........
    ..........
    @@@@@@....
    ....@@....
    ....@@....
    ....@@....
    ....@@....
    ....@@....
    ....@@....
    ....@@....
    ....@@....
    ....@@....
    ....@@....

u+2513:
BOX DRAWINGS HEAVY DOWN AND LEFT:
    ..........
    ..........
    ..........
    ..........
    ..........
    ..........
    ..........
    ..........
    ..........
    @@@@@@....
    @@@@@@....
    ....@@....
    ....@@....
    ....@@....
    ....@@....
    ....@@....
    ....@@....
    ....@@....
    ....@@....
    ....@@....

u+2514:
BOX DRAWINGS LIGHT UP AND RIGHT:
    ....@.....
    ....@.....
    ....@.....
    ....@.....
    ....@.....
    ....@.....
    ....@.....
    ....@.....
    ....@.....
    ....@@@@@@
    ..........
    ..........
    ..........
    ..........
    ..........
    ..........
    ..........
    ..........
    ..........
    ..........

u+2515:
BOX DRAWINGS UP LIGHT AND RIGHT HEAVY:
    ....@.....
    ....@.....
    ....@.....
    ....@.....
    ....@.....
    ....@.....
    ....@.....
    ....@.....
    ....@.....
    ....@@@@@@
    ....@@@@@@
    ..........
    ..........
    ..........
    ..........
    ..........
    ..........
    ..........
    ..........
    ..........

u+2516:
BOX DRAWINGS UP HEAVY AND RIGHT LIGHT:
    ....@@....
    ....@@....
    ....@@....
    ....@@....
    ....@@....
    ....@@....
    ....@@....
    ....@@....
    ....@@....
    ....@@@@@@
    ..........
    ..........
    ..........
    ..........
    ..........
    ..........
    ..........
    ..........
    ..........
    ..........

u+2517:
BOX DRAWINGS HEAVY UP AND RIGHT:
    ....@@....
    ....@@....
    ....@@....
    ....@@....
    ....@@....
    ....@@....
    ....@@....
    ....@@....
    ....@@....
    ....@@@@@@
    ....@@@@@@
    ..........
    ..........
    ..........
    ..........
    ..........
    ..........
    ..........
    ..........
    ..........

u+2518:
BOX DRAWINGS LIGHT UP AND LEFT:
    ....@.....
    ....@.....
    ....@.....
    ....@.....
    ....@.....
    ....@.....
    ....@.....
    ....@.....
    ....@.....
    @@@@@.....
    ..........
    ..........
    ..........
    ..........
    ..........
    ..........
    ..........
    ..........
    ..........
    ..........

u+2519:
BOX DRAWINGS UP LIGHT AND LEFT HEAVY:
    ....@.....
    ....@.....
    ....@.....
    ....@.....
    ....@.....
    ....@.....
    ....@.....
    ....@.....
    ....@.....
    @@@@@.....
    @@@@@.....
    ..........
    ..........
    ..........
    ..........
    ..........
    ..........
    ..........
    ..........
    ..........

u+251a:
BOX DRAWINGS UP HEAVY AND LEFT LIGHT:
    ....@@....
    ....@@....
    ....@@....
    ....@@....
    ....@@....
    ....@@....
    ....@@....
    ....@@....
    ....@@....
    @@@@@@....
    ..........
    ..........
    ..........
    ..........
    ..........
    ..........
    ..........
    ..........
    ..........
    ..........

u+251b:
BOX DRAWINGS HEAVY UP AND LEFT:
    ....@@....
    ....@@....
    ....@@....
    ....@@....
    ....@@....
    ....@@....
    ....@@....
    ....@@....
    ....@@....
    @@@@@@....
    @@@@@@....
    ..........
    ..........
    ..........
    ..........
    ..........
    ..........
    ..........
    ..........
    ..........

u+251c:
BOX DRAWINGS LIGHT VERTICAL AND RIGHT:
    ....@.....
    ....@.....
    ....@.....
    ....@.....
    ....@.....
    ....@.....
    ....@.....
    ....@.....
    ....@.....
    ....@@@@@@
    ....@.....
    ....@.....
    ....@.....
    ....@.....
    ....@.....
    ....@.....
    ....@.....
    ....@.....
    ....@.....
    ....@.....

u+251d:
BOX DRAWINGS VERTICAL LIGHT AND RIGHT HEAVY:
    ....@.....
    ....@.....
    ....@.....
    ....@.....
    ....@.....
    ....@.....
    ....@.....
    ....@.....
    ....@.....
    ....@@@@@@
    ....@@@@@@
    ....@.....
    ....@.....
    ....@.....
    ....@.....
    ....@.....
    ....@.....
    ....@.....
    ....@.....
    ....@.....

u+251e:
BOX DRAWINGS UP HEAVY AND RIGHT DOWN LIGHT:
    ....@@....
    ....@@....
    ....@@....
    ....@@....
    ....@@....
    ....@@....
    ....@@....
    ....@@....
    ....@@....
    ....@@@@@@
    ....@.....
    ....@.....
    ....@.....
    ....@.....
    ....@.....
    ....@.....
    ....@.....
    ....@.....
    ....@.....
    ....@.....

u+251f:
BOX DRAWINGS DOWN HEAVY AND RIGHT UP LIGHT:
    ....@.....
    ....@.....
    ....@.....
    ....@.....
    ....@.....
    ....@.....
    ....@.....
    ....@.....
    ....@.....
    ....@@@@@@
    ....@@....
    ....@@....
    ....@@....
    ....@@....
    ....@@....
    ....@@....
    ....@@....
    ....@@....
    ....@@....
    ....@@....

u+2520:
BOX DRAWINGS VERTICAL HEAVY AND RIGHT LIGHT:
    ....@@....
    ....@@....
    ....@@....
    ....@@....
    ....@@....
    ....@@....
    ....@@....
    ....@@....
    ....@@....
    ....@@@@@@
    ....@@....
    ....@@....
    ....@@....
    ....@@....
    ....@@....
    ....@@....
    ....@@....
    ....@@....
    ....@@....
    ....@@....

u+2521:
BOX DRAWINGS DOWN LIGHT AND RIGHT UP HEAVY:
    ....@@....
    ....@@....
    ....@@....
    ....@@....
    ....@@....
    ....@@....
    ....@@....
    ....@@....
    ....@@....
    ....@@@@@@
    ....@@@@@@
    ....@.....
    ....@.....
    ....@.....
    ....@.....
    ....@.....
    ....@.....
    ....@.....
    ....@.....
    ....@.....

u+2522:
BOX DRAWINGS UP LIGHT AND RIGHT DOWN HEAVY:
    ....@.....
    ....@.....
    ....@.....
    ....@.....
    ....@.....
    ....@.....
    ....@.....
    ....@.....
    ....@.....
    ....@@@@@@
    ....@@@@@@
    ....@@....
    ....@@....
    ....@@....
    ....@@....
    ....@@....
    ....@@....
    ....@@....
    ....@@....
    ....@@....

u+2523:
BOX DRAWINGS HEAVY VERTICAL AND RIGHT:
    ....@@....
    ....@@....
    ....@@....
    ....@@....
    ....@@....
    ....@@....
    ....@@....
    ....@@....
    ....@@....
    ....@@@@@@
    ....@@@@@@
    ....@@....
    ....@@....
    ....@@....
    ....@@....
    ....@@....
    ....@@....
    ....@@....
    ....@@....
    ....@@....

u+2524:
BOX DRAWINGS LIGHT VERTICAL AND LEFT:
    ....@.....
    ....@.....
    ....@.....
    ....@.....
    ....@.....
    ....@.....
    ....@.....
    ....@.....
    ....@.....
    @@@@@.....
    ....@.....
    ....@.....
    ....@.....
    ....@.....
    ....@.....
    ....@.....
    ....@.....
    ....@.....
    ....@.....
    ....@.....

u+2525:
BOX DRAWINGS VERTICAL LIGHT AND LEFT HEAVY:
    ....@.....
    ....@.....
    ....@.....
    ....@.....
    ....@.....
    ....@.....
    ....@.....
    ....@.....
    ....@.....
    @@@@@.....
    @@@@@.....
    ....@.....
    ....@.....
    ....@.....
    ....@.....
    ....@.....
    ....@.....
    ....@.....
    ....@.....
    ....@.....

u+2526:
BOX DRAWINGS UP HEAVY AND LEFT DOWN LIGHT:
    ....@@....
    ....@@....
    ....@@....
    ....@@....
    ....@@....
    ....@@....
    ....@@....
    ....@@....
    ....@@....
    @@@@@@....
    ....@.....
    ....@.....
    ....@.....
    ....@.....
    ....@.....
    ....@.....
    ....@.....
    ....@.....
    ....@.....
    ....@.....

u+2527:
BOX DRAWINGS DOWN HEAVY AND LEFT UP LIGHT:
    ....@.....
    ....@.....
    ....@.....
    ....@.....
    ....@.....
    ....@.....
    ....@.....
    ....@.....
    ....@.....
    @@@@@@....
    ....@@....
    ....@@....
    ....@@....
    ....@@....
    ....@@....
    ....@@....
    ....@@....
    ....@@....
    ....@@....
    ....@@....

u+2528:
BOX DRAWINGS VERTICAL HEAVY AND LEFT LIGHT:
    ....@@....
    ....@@....
    ....@@....
    ....@@....
    ....@@....
    ....@@....
    ....@@....
    ....@@....
    ....@@....
    @@@@@@....
    ....@@....
    ....@@....
    ....@@....
    ....@@....
    ....@@....
    ....@@....
    ....@@....
    ....@@....
    ....@@....
    ....@@....

u+2529:
BOX DRAWINGS DOWN LIGHT AND LEFT UP HEAVY:
    ....@@....
    ....@@....
    ....@@....
    ....@@....
    ....@@....
    ....@@....
    ....@@....
    ....@@....
    ....@@....
    @@@@@@....
    @@@@@@....
    ....@.....
    ....@.....
    ....@.....
    ....@.....
    ....@.....
    ....@.....
    ....@.....
    ....@.....
    ....@.....

u+252a:
BOX DRAWINGS UP LIGHT AND LEFT DOWN HEAVY:
    ....@.....
    ....@.....
    ....@.....
    ....@.....
    ....@.....
    ....@.....
    ....@.....
    ....@.....
    ....@.....
    @@@@@@....
    @@@@@@....
    ....@@....
    ....@@....
    ....@@....
    ....@@....
    ....@@....
    ....@@....
    ....@@....
    ....@@....
    ....@@....

u+252b:
BOX DRAWINGS HEAVY VERTICAL AND LEFT:
    ....@@....
    ....@@....
    ....@@....
    ....@@....
    ....@@....
    ....@@....
    ....@@....
    ....@@....
    ....@@....
    @@@@@@....
    @@@@@@....
    ....@@....
    ....@@....
    ....@@....
    ....@@....
    ....@@....
    ....@@....
    ....@@....
    ....@@....
    ....@@....

u+252c:
BOX DRAWINGS LIGHT DOWN AND HORIZONTAL:
    ..........
    ..........
    ..........
    ..........
    ..........
    ..........
    ..........
    ..........
    ..........
    @@@@@@@@@@
    ....@.....
    ....@.....
    ....@.....
    ....@.....
    ....@.....
    ....@.....
    ....@.....
    ....@.....
    ....@.....
    ....@.....

u+252d:
BOX DRAWINGS LEFT HEAVY AND RIGHT DOWN LIGHT:
    ..........
    ..........
    ..........
    ..........
    ..........
    ..........
    ..........
    ..........
    ..........
    @@@@@@@@@@
    @@@@@.....
    ....@.....
    ....@.....
    ....@.....
    ....@.....
    ....@.....
    ....@.....
    ....@.....
    ....@.....
    ....@.....

u+252e:
BOX DRAWINGS RIGHT HEAVY AND LEFT DOWN LIGHT:
    ..........
    ..........
    ..........
    ..........
    ..........
    ..........
    ..........
    ..........
    ..........
    @@@@@@@@@@
    ....@@@@@@
    ....@.....
    ....@.....
    ....@.....
    ....@.....
    ....@.....
    ....@.....
    ....@.....
    ....@.....
    ....@.....

u+252f:
BOX DRAWINGS DOWN LIGHT AND HORIZONTAL HEAVY:
    ..........
    ..........
    ..........
    ..........
    ..........
    ..........
    ..........
    ..........
    ..........
    @@@@@@@@@@
    @@@@@@@@@@
    ....@.....
    ....@.....
    ....@.....
    ....@.....
    ....@.....
    ....@.....
    ....@.....
    ....@.....
    ....@.....

u+2530:
BOX DRAWINGS DOWN HEAVY AND HORIZONTAL LIGHT:
    ..........
    ..........
    ..........
    ..........
    ..........
    ..........
    ..........
    ..........
    ..........
    @@@@@@@@@@
    ....@@....
    ....@@....
    ....@@....
    ....@@....
    ....@@....
    ....@@....
    ....@@....
    ....@@....
    ....@@....
    ....@@....

u+2531:
BOX DRAWINGS RIGHT LIGHT AND LEFT DOWN HEAVY:
    ..........
    ..........
    ..........
    ..........
    ..........
    ..........
    ..........
    ..........
    ..........
    @@@@@@@@@@
    @@@@@@....
    ....@@....
    ....@@....
    ....@@....
    ....@@....
    ....@@....
    ....@@....
    ....@@....
    ....@@....
    ....@@....

u+2532:
BOX DRAWINGS LEFT LIGHT AND RIGHT DOWN HEAVY:
    ..........
    ..........
    ..........
    ..........
    ..........
    ..........
    ..........
    ..........
    ..........
    @@@@@@@@@@
    ....@@@@@@
    ....@@....
    ....@@....
    ....@@....
    ....@@....
    ....@@....
    ....@@....
    ....@@....
    ....@@....
    ....@@....

u+2533:
BOX DRAWINGS HEAVY DOWN AND HORIZONTAL:
    ..........
    ..........
    ..........
    ..........
    ..........
    ..........
    ..........
    ..........
    ..........
    @@@@@@@@@@
    @@@@@@@@@@
    ....@@....
    ....@@....
    ....@@....
    ....@@....
    ....@@....
    ....@@....
    ....@@....
    ....@@....
    ....@@....

u+2534:
BOX DRAWINGS LIGHT UP AND HORIZONTAL:
    ....@.....
    ....@.....
    ....@.....
    ....@.....
    ....@.....
    ....@.....
    ....@.....
    ....@.....
    ....@.....
    @@@@@@@@@@
    ..........
    ..........
    ..........
    ..........
    ..........
    ..........
    ..........
    ..........
    ..........
    ..........

u+2535:
BOX DRAWINGS LEFT HEAVY AND RIGHT UP LIGHT:
    ....@.....
    ....@.....
    ....@.....
    ....@.....
    ....@.....
    ....@.....
    ....@.....
    ....@.....
    ....@.....
    @@@@@@@@@@
    @@@@@.....
    ..........
    ..........
    ..........
    ..........
    ..........
    ..........
    ..........
    ..........
    ..........

u+2536:
BOX DRAWINGS RIGHT HEAVY AND LEFT UP LIGHT:
    ....@.....
    ....@.....
    ....@.....
    ....@.....
    ....@.....
    ....@.....
    ....@.....
    ....@.....
    ....@.....
    @@@@@@@@@@
    ....@@@@@@
    ..........
    ..........
    ..........
    ..........
    ..........
    ..........
    ..........
    ..........
    ..........

u+2537:
BOX DRAWINGS UP LIGHT AND HORIZONTAL HEAVY:
    ....@.....
    ....@.....
    ....@.....
    ....@.....
    ....@.....
    ....@.....
    ....@.....
    ....@.....
    ....@.....
    @@@@@@@@@@
    @@@@@@@@@@
    ..........
    ..........
    ..........
    ..........
    ..........
    ..........
    ..........
    ..........
    ..........

u+2538:
BOX DRAWINGS UP HEAVY AND HORIZONTAL LIGHT:
    ....@@....
    ....@@....
    ....@@....
    ....@@....
    ....@@....
    ....@@....
    ....@@....
    ....@@....
    ....@@....
    @@@@@@@@@@
    ..........
    ..........
    ..........
    ..........
    ..........
    ..........
    ..........
    ..........
    ..........
    ..........

u+2539:
BOX DRAWINGS RIGHT LIGHT AND LEFT UP HEAVY:
    ....@@....
    ....@@....
    ....@@....
    ....@@....
    ....@@....
    ....@@....
    ....@@....
    ....@@....
    ....@@....
    @@@@@@@@@@
    @@@@@@....
    ..........
    ..........
    ..........
    ..........
    ..........
    ..........
    ..........
    ..........
    ..........

u+253a:
BOX DRAWINGS LEFT LIGHT AND RIGHT UP HEAVY:
    ....@@....
    ....@@....
    ....@@....
    ....@@....
    ....@@....
    ....@@....
    ....@@....
    ....@@....
    ....@@....
    @@@@@@@@@@
    ....@@@@@@
    ..........
    ..........
    ..........
    ..........
    ..........
    ..........
    ..........
    ..........
    ..........

u+253b:
BOX DRAWINGS HEAVY UP AND HORIZONTAL:
    ....@@....
    ....@@....
    ....@@....
    ....@@....
    ....@@....
    ....@@....
    ....@@....
    ....@@....
    ....@@....
    @@@@@@@@@@
    @@@@@@@@@@
    ..........
    ..........
    ..........
    ..........
    ..........
    ..........
    ..........
    ..........
    ..........

u+253c:
BOX DRAWINGS LIGHT VERTICAL AND HORIZONTAL:
    ....@.....
    ....@.....
    ....@.....
    ....@.....
    ....@.....
    ....@.....
    ....@.....
    ....@.....
    ....@.....
    @@@@@@@@@@
    ....@.....
    ....@.....
    ....@.....
    ....@.....
    ....@.....
    ....@.....
    ....@.....
    ....@.....
    ....@.....
    ....@.....

u+253d:
BOX DRAWINGS LEFT HEAVY AND RIGHT VERTICAL LIGHT:
    ....@.....
    ....@.....
    ....@.....
    ....@.....
    ....@.....
    ....@.....
    ....@.....
    ....@.....
    ....@.....
    @@@@@@@@@@
    @@@@@.....
    ....@.....
    ....@.....
    ....@.....
    ....@.....
    ....@.....
    ....@.....
    ....@.....
    ....@.....
    ....@.....

u+253e:
BOX DRAWINGS RIGHT HEAVY AND LEFT VERTICAL LIGHT:
    ....@.....
    ....@.....
    ....@.....
    ....@.....
    ....@.....
    ....@.....
    ....@.....
    ....@.....
    ....@.....
    @@@@@@@@@@
    ....@@@@@@
    ....@.....
    ....@.....
    ....@.....
    ....@.....
    ....@.....
    ....@.....
    ....@.....
    ....@.....
    ....@.....

u+253f:
BOX DRAWINGS VERTICAL LIGHT AND HORIZONTAL HEAVY:
    ....@.....
    ....@.....
    ....@.....
    ....@.....
    ....@.....
    ....@.....
    ....@.....
    ....@.....
    ....@.....
    @@@@@@@@@@
    @@@@@@@@@@
    ....@.....
    ....@.....
    ....@.....
    ....@.....
    ....@.....
    ....@.....
    ....@.....
    ....@.....
    ....@.....

u+2540:
BOX DRAWINGS UP HEAVY AND DOWN HORIZONTAL LIGHT:
    ....@@....
    ....@@....
    ....@@....
    ....@@....
    ....@@....
    ....@@....
    ....@@....
    ....@@....
    ....@@....
    @@@@@@@@@@
    ....@.....
    ....@.....
    ....@.....
    ....@.....
    ....@.....
    ....@.....
    ....@.....
    ....@.....
    ....@.....
    ....@.....

u+2541:
BOX DRAWINGS DOWN HEAVY AND UP HORIZONTAL LIGHT:
    ....@.....
    ....@.....
    ....@.....
    ....@.....
    ....@.....
    ....@.....
    ....@.....
    ....@.....
    ....@.....
    @@@@@@@@@@
    ....@@....
    ....@@....
    ....@@....
    ....@@....
    ....@@....
    ....@@....
    ....@@....
    ....@@....
    ....@@....
    ....@@....

u+2542:
BOX DRAWINGS VERTICAL HEAVY AND HORIZONTAL LIGHT:
    ....@@....
    ....@@....
    ....@@....
    ....@@....
    ....@@....
    ....@@....
    ....@@....
    ....@@....
    ....@@....
    @@@@@@@@@@
    ....@@....
    ....@@....
    ....@@....
    ....@@....
    ....@@....
    ....@@....
    ....@@....
    ....@@....
    ....@@....
    ....@@....

u+2543:
BOX DRAWINGS LEFT UP HEAVY AND RIGHT DOWN LIGHT:
    ....@@....
    ....@@....
    ....@@....
    ....@@....
    ....@@....
    ....@@....
    ....@@....
    ....@@....
    ....@@....
    @@@@@@@@@@
    @@@@@.....
    ....@.....
    ....@.....
    ....@.....
    ....@.....
    ....@.....
    ....@.....
    ....@.....
    ....@.....
    ....@.....

u+2544:
BOX DRAWINGS RIGHT UP HEAVY AND LEFT DOWN LIGHT:
    ....@@....
    ....@@....
    ....@@....
    ....@@....
    ....@@....
    ....@@....
    ....@@....
    ....@@....
    ....@@....
    @@@@@@@@@@
    ....@@@@@@
    ....@.....
    ....@.....
    ....@.....
    ....@.....
    ....@.....
    ....@.....
    ....@.....
    ....@.....
    ....@.....

u+2545:
BOX DRAWINGS LEFT DOWN HEAVY AND RIGHT UP LIGHT:
    ....@.....
    ....@.....
    ....@.....
    ....@.....
    ....@.....
    ....@.....
    ....@.....
    ....@.....
    ....@.....
    @@@@@@@@@@
    @@@@@@....
    ....@@....
    ....@@....
    ....@@....
    ....@@....
    ....@@....
    ....@@....
    ....@@....
    ....@@....
    ....@@....

u+2546:
BOX DRAWINGS RIGHT DOWN HEAVY AND LEFT UP LIGHT:
    ....@.....
    ....@.....
    ....@.....
    ....@.....
    ....@.....
    ....@.....
    ....@.....
    ....@.....
    ....@.....
    @@@@@@@@@@
    ....@@@@@@
    ....@@....
    ....@@....
    ....@@....
    ....@@....
    ....@@....
    ....@@....
    ....@@....
    ....@@....
    ....@@....

u+2547:
BOX DRAWINGS DOWN LIGHT AND UP HORIZONTAL HEAVY:
    ....@@....
    ....@@....
    ....@@....
    ....@@....
    ....@@....
    ....@@....
    ....@@....
    ....@@....
    ....@@....
    @@@@@@@@@@
    @@@@@@@@@@
    ....@.....
    ....@.....
    ....@.....
    ....@.....
    ....@.....
    ....@.....
    ....@.....
    ....@.....
    ....@.....

u+2548:
BOX DRAWINGS UP LIGHT AND DOWN HORIZONTAL HEAVY:
    ....@.....
    ....@.....
    ....@.....
    ....@.....
    ....@.....
    ....@.....
    ....@.....
    ....@.....
    ....@.....
    @@@@@@@@@@
    @@@@@@@@@@
    ....@@....
    ....@@....
    ....@@....
    ....@@....
    ....@@....
    ....@@....
    ....@@....
    ....@@....
    ....@@....

u+2549:
BOX DRAWINGS RIGHT LIGHT AND LEFT VERTICAL HEAVY:
    ....@@....
    ....@@....
    ....@@....
    ....@@....
    ....@@....
    ....@@....
    ....@@....
    ....@@....
    ....@@....
    @@@@@@@@@@
    @@@@@@....
    ....@@....
    ....@@....
    ....@@....
    ....@@....
    ....@@....
    ....@@....
    ....@@....
    ....@@....
    ....@@....

u+254a:
BOX DRAWINGS LEFT LIGHT AND RIGHT VERTICAL HEAVY:
    ....@@....
    ....@@....
    ....@@....
    ....@@....
    ....@@....
    ....@@....
    ....@@....
    ....@@....
    ....@@....
    @@@@@@@@@@
    ....@@@@@@
    ....@@....
    ....@@....
    ....@@....
    ....@@....
    ....@@....
    ....@@....
    ....@@....
    ....@@....
    ....@@....

u+254b:
BOX DRAWINGS HEAVY VERTICAL AND HORIZONTAL:
    ....@@....
    ....@@....
    ....@@....
    ....@@....
    ....@@....
    ....@@....
    ....@@....
    ....@@....
    ....@@....
    @@@@@@@@@@
    @@@@@@@@@@
    ....@@....
    ....@@....
    ....@@....
    ....@@....
    ....@@....
    ....@@....
    ....@@....
    ....@@....
    ....@@....

u+2550:
BOX DRAWINGS DOUBLE HORIZONTAL:
    ..........
    ..........
    ..........
    ..........
    ..........
    ..........
    ..........
    ..........
    @@@@@@@@@@
    ..........
    @@@@@@@@@@
    ..........
    ..........
    ..........
    ..........
    ..........
    ..........
    ..........
    ..........
    ..........

u+2551:
BOX DRAWINGS DOUBLE VERTICAL:
    ...@.@....
    ...@.@....
    ...@.@....
    ...@.@....
    ...@.@....
    ...@.@....
    ...@.@....
    ...@.@....
    ...@.@....
    ...@.@....
    ...@.@....
    ...@.@....
    ...@.@....
    ...@.@....
    ...@.@....
    ...@.@....
    ...@.@....
    ...@.@....
    ...@.@....
    ...@.@....

u+2552:
BOX DRAWINGS DOWN SINGLE AND RIGHT DOUBLE:
    ..........
    ..........
    ..........
    ..........
    ..........
    ..........
    ..........
    ..........
    ....@@@@@@
    ....@.....
    ....@@@@@@
    ....@.....
    ....@.....
    ....@.....
    ....@.....
    ....@.....
    ....@.....
    ....@.....
    ....@.....
    ....@.....

u+2553:
BOX DRAWINGS DOWN DOUBLE AND RIGHT SINGLE:
    ..........
    ..........
    ..........
    ..........
    ..........
    ..........
    ..........
    ..........
    ..........
    ...@@@@@@@
    ...@.@....
    ...@.@....
    ...@.@....
    ...@.@....
    ...@.@....
    ...@.@....
    ...@.@....
    ...@.@....
    ...@.@....
    ...@.@....

u+2554:
BOX DRAWINGS DOUBLE DOWN AND RIGHT:
    ..........
    ..........
    ..........
    ..........
    ..........
    ..........
    ..........
    ..........
    ...@@@@@@@
    ...@......
    ...@.@@@@@
    ...@.@....
    ...@.@....
    ...@.@....
    ...@.@....
    ...@.@....
    ...@.@....
    ...@.@....
    ...@.@....
    ...@.@....

u+2555:
BOX DRAWINGS DOWN SINGLE AND LEFT DOUBLE:
    ..........
    ..........
    ..........
    ..........
    ..........
    ..........
    ..........
    ..........
    @@@@@.....
    ....@.....
    @@@@@.....
    ....@.....
    ....@.....
    ....@.....
    ....@.....
    ....@.....
    ....@.....
    ....@.....
    ....@.....
    ....@.....

u+2556:
BOX DRAWINGS DOWN DOUBLE AND LEFT SINGLE:
    ..........
    ..........
    ..........
    ..........
    ..........
    ..........
    ..........
    ..........
    ..........
    @@@@@@....
    ...@.@....
    ...@.@....
    ...@.@....
    ...@.@....
    ...@.@....
    ...@.@....
    ...@.@....
    ...@.@....
    ...@.@....
    ...@.@....

u+2557:
BOX DRAWINGS DOUBLE DOWN AND LEFT:
    ..........
    ..........
    ..........
    ..........
    ..........
    ..........
    ..........
    ..........
    @@@@@@....
    .....@....
    @@@@.@....
    ...@.@....
    ...@.@....
    ...@.@....
    ...@.@....
    ...@.@....
    ...@.@....
    ...@.@....
    ...@.@....
    ...@.@....

u+2558:
BOX DRAWINGS UP SINGLE AND RIGHT DOUBLE:
    ....@.....
    ....@.....
    ....@.....
    ....@.....
    ....@.....
    ....@.....
    ....@.....
    ....@.....
    ....@@@@@@
    ....@.....
    ....@@@@@@
    ..........
    ..........
    ..........
    ..........
    ..........
    ..........
    ..........
    ..........
    ..........

u+2559:
BOX DRAWINGS UP DOUBLE AND RIGHT SINGLE:
    ...@.@....
    ...@.@....
    ...@.@....
    ...@.@....
    ...@.@....
    ...@.@....
    ...@.@....
    ...@.@....
    ...@.@....
    ...@@@@@@@
    ..........
    ..........
    ..........
    ..........
    ..........
    ..........
    ..........
    ..........
    ..........
    ..........

u+255a:
BOX DRAWINGS DOUBLE UP AND RIGHT:
    ...@.@....
    ...@.@....
    ...@.@....
    ...@.@....
    ...@.@....
    ...@.@....
    ...@.@....
    ...@.@....
    ...@.@@@@@
    ...@......
    ...@@@@@@@
    ..........
    ..........
    ..........
    ..........
    ..........
    ..........
    ..........
    ..........
    ..........

u+255b:
BOX DRAWINGS UP SINGLE AND LEFT DOUBLE:
    ....@.....
    ....@.....
    ....@.....
    ....@.....
    ....@.....
    ....@.....
    ....@.....
    ....@.....
    @@@@@.....
    ....@.....
    @@@@@.....
    ..........
    ..........
    ..........
    ..........
    ..........
    ..........
    ..........
    ..........
    ..........

u+255c:
BOX DRAWINGS UP DOUBLE AND LEFT SINGLE:
    ...@.@....
    ...@.@....
    ...@.@....
    ...@.@....
    ...@.@....
    ...@.@....
    ...@.@....
    ...@.@....
    ...@.@....
    @@@@@@....
    ..........
    ..........
    ..........
    ..........
    ..........
    ..........
    ..........
    ..........
    ..........
    ..........

u+255d:
BOX DRAWINGS DOUBLE UP AND LEFT:
    ...@.@....
    ...@.@....
    ...@.@....
    ...@.@....
    ...@.@....
    ...@.@....
    ...@.@....
    ...@.@....
    @@@@.@....
    .....@....
    @@@@@@....
    ..........
    ..........
    ..........
    ..........
    ..........
    ..........
    ..........
    ..........
    ..........

u+255e:
BOX DRAWINGS VERTICAL SINGLE AND RIGHT DOUBLE:
    ....@.....
    ....@.....
    ....@.....
    ....@.....
    ....@.....
    ....@.....
    ....@.....
    ....@.....
    ....@@@@@@
    ....@.....
    ....@@@@@@
    ....@.....
    ....@.....
    ....@.....
    ....@.....
    ....@.....
    ....@.....
    ....@.....
    ....@.....
    ....@.....

u+255f:
BOX DRAWINGS VERTICAL DOUBLE AND RIGHT SINGLE:
    ...@.@....
    ...@.@....
    ...@.@....
    ...@.@....
    ...@.@....
    ...@.@....
    ...@.@....
    ...@.@....
    ...@.@....
    ...@.@@@@@
    ...@.@....
    ...@.@....
    ...@.@....
    ...@.@....
    ...@.@....
    ...@.@....
    ...@.@....
    ...@.@....
    ...@.@....
    ...@.@....

u+2560:
BOX DRAWINGS DOUBLE VERTICAL AND RIGHT:
    ...@.@....
    ...@.@....
    ...@.@....
    ...@.@....
    ...@.@....
    ...@.@....
    ...@.@....
    ...@.@....
    ...@.@@@@@
    ...@......
    ...@.@@@@@
    ...@.@....
    ...@.@....
    ...@.@....
    ...@.@....
    ...@.@....
    ...@.@....
    ...@.@....
    ...@.@....
    ...@.@....

u+2561:
BOX DRAWINGS VERTICAL SINGLE AND LEFT DOUBLE:
    ....@.....
    ....@.....
    ....@.....
    ....@.....
    ....@.....
    ....@.....
    ....@.....
    ....@.....
    @@@@@.....
    ....@.....
    @@@@@.....
    ....@.....
    ....@.....
    ....@.....
    ....@.....
    ....@.....
    ....@.....
    ....@.....
    ....@.....
    ....@.....

u+2562:
BOX DRAWINGS VERTICAL DOUBLE AND LEFT SINGLE:
    ...@.@....
    ...@.@....
    ...@.@....
    ...@.@....
    ...@.@....
    ...@.@....
    ...@.@....
    ...@.@....
    ...@.@....
    @@@@.@....
    ...@.@....
    ...@.@....
    ...@.@....
    ...@.@....
    ...@.@....
    ...@.@....
    ...@.@....
    ...@.@....
    ...@.@....
    ...@.@....

u+2563:
BOX DRAWINGS DOUBLE VERTICAL AND LEFT:
    ...@.@....
    ...@.@....
    ...@.@....
    ...@.@....
    ...@.@....
    ...@.@....
    ...@.@....
    ...@.@....
    @@@@.@....
    .....@....
    @@@@.@....
    ...@.@....
    ...@.@....
    ...@.@....
    ...@.@....
    ...@.@....
    ...@.@....
    ...@.@....
    ...@.@....
    ...@.@....

u+2564:
BOX DRAWINGS DOWN SINGLE AND HORIZONTAL DOUBLE:
    ..........
    ..........
    ..........
    ..........
    ..........
    ..........
    ..........
    ..........
    @@@@@@@@@@
    ..........
    @@@@@@@@@@
    ....@.....
    ....@.....
    ....@.....
    ....@.....
    ....@.....
    ....@.....
    ....@.....
    ....@.....
    ....@.....

u+2565:
BOX DRAWINGS DOWN DOUBLE AND HORIZONTAL SINGLE:
    ..........
    ..........
    ..........
    ..........
    ..........
    ..........
    ..........
    ..........
    ..........
    @@@@@@@@@@
    ...@.@....
    ...@.@....
    ...@.@....
    ...@.@....
    ...@.@....
    ...@.@....
    ...@.@....
    ...@.@....
    ...@.@....
    ...@.@....

u+2566:
BOX DRAWINGS DOUBLE DOWN AND HORIZONTAL:
    ..........
    ..........
    ..........
    ..........
    ..........
    ..........
    ..........
    ..........
    @@@@@@@@@@
    ..........
    @@@@.@@@@@
    ...@.@....
    ...@.@....
    ...@.@....
    ...@.@....
    ...@.@....
    ...@.@....
    ...@.@....
    ...@.@....
    ...@.@....

u+2567:
BOX DRAWINGS UP SINGLE AND HORIZONTAL DOUBLE:
    ....@.....
    ....@.....
    ....@.....
    ....@.....
    ....@.....
    ....@.....
    ....@.....
    ....@.....
    @@@@@@@@@@
    ..........
    @@@@@@@@@@
    ..........
    ..........
    ..........
    ..........
    ..........
    ..........
    ..........
    ..........
    ..........

u+2568:
BOX DRAWINGS UP DOUBLE AND HORIZONTAL SINGLE:
    ...@.@....
    ...@.@....
    ...@.@....
    ...@.@....
    ...@.@....
    ...@.@....
    ...@.@....
    ...@.@....
    ...@.@....
    @@@@@@@@@@
    ..........
    ..........
    ..........
    ..........
    ..........
    ..........
    ..........
    ..........
    ..........
    ..........

u+2569:
BOX DRAWINGS DOUBLE UP AND HORIZONTAL:
    ...@.@....
    ...@.@....
    ...@.@....
    ...@.@....
    ...@.@....
    ...@.@....
    ...@.@....
    ...@.@....
    @@@@.@@@@@
    ..........
    @@@@@@@@@@
    ..........
    ..........
    ..........
    ..........
    ..........
    ..........
    ..........
    ..........
    ..........

u+256a:
BOX DRAWINGS VERTICAL SINGLE AND HORIZONTAL DOUBLE:
    ....@.....
    ....@.....
    ....@.....
    ....@.....
    ....@.....
    ....@.....
    ....@.....
    ....@.....
    @@@@@@@@@@
    ....@.....
    @@@@@@@@@@
    ....@.....
    ....@.....
    ....@.....
    ....@.....
    ....@.....
    ....@.....
    ....@.....
    ....@.....
    ....@.....

u+256b:
BOX DRAWINGS VERTICAL DOUBLE AND HORIZONTAL SINGLE:
    ...@.@....
    ...@.@....
    ...@.@....
    ...@.@....
    ...@.@....
    ...@.@....
    ...@.@....
    ...@.@....
    ...@.@....
    @@@@@@@@@@
    ...@.@....
    ...@.@....
    ...@.@....
    ...@.@....
    ...@.@....
    ...@.@....
    ...@.@....
    ...@.@....
    ...@.@....
    ...@.@....

u+256c:
BOX DRAWINGS DOUBLE VERTICAL AND HORIZONTAL:
    ...@.@....
    ...@.@....
    ...@.@....
    ...@.@....
    ...@.@....
    ...@.@....
    ...@.@....
    ...@.@....
    @@@@.@@@@@
    ..........
    @@@@.@@@@@
    ...@.@....
    ...@.@....
    ...@.@....
    ...@.@....
    ...@.@....
    ...@.@....
    ...@.@....
    ...@.@....
    ...@.@....

u+256d:
BOX DRAWINGS LIGHT ARC DOWN AND RIGHT:
    ..........
    ..........
    ..........
    ..........
    ..........
    ..........
    ..........
    ..........
    ..........
    .......@@@
    ......@...
    .....@....
    ....@.....
    ....@.....
    ....@.....
    ....@.....
    ....@.....
    ....@.....
    ....@.....
    ....@.....

u+256e:
BOX DRAWINGS LIGHT ARC DOWN AND LEFT:
    ..........
    ..........
    ..........
    ..........
    ..........
    ..........
    ..........
    ..........
    ..........
    @@........
    ..@.......
    ...@......
    ....@.....
    ....@.....
    ....@.....
    ....@.....
    ....@.....
    ....@.....
    ....@.....
    ....@.....

u+256f:
BOX DRAWINGS LIGHT ARC UP AND LEFT:
    ....@.....
    ....@.....
    ....@.....
    ....@.....
    ....@.....
    ....@.....
    ....@.....
    ...@......
    ..@.......
    @@........
    ..........
    ..........
    ..........
    ..........
    ..........
    ..........
    ..........
    ..........
    ..........
    ..........

u+2570:
BOX DRAWINGS LIGHT ARC UP AND RIGHT:
    ....@.....
    ....@.....
    ....@.....
    ....@.....
    ....@.....
    ....@.....
    ....@.....
    .....@....
    ......@...
    .......@@@
    ..........
    ..........
    ..........
    ..........
    ..........
    ..........
    ..........
    ..........
    ..........
    ..........

u+2574:
BOX DRAWINGS LIGHT LEFT:
    ..........
    ..........
    ..........
    ..........
    ..........
    ..........
    ..........
    ..........
    ..........
    @@@@@.....
    ..........
    ..........
    ..........
    ..........
    ..........
    ..........
    ..........
    ..........
    ..........
    ..........

u+2575:
BOX DRAWINGS LIGHT UP:
    ....@.....
    ....@.....
    ....@.....
    ....@.....
    ....@.....
    ....@.....
    ....@.....
    ....@.....
    ....@.....
    ....@.....
    ..........
    ..........
    ..........
    ..........
    ..........
    ..........
    ..........
    ..........
    ..........
    ..........

u+2576:
BOX DRAWINGS LIGHT RIGHT:
    ..........
    ..........
    ..........
    ..........
    ..........
    ..........
    ..........
    ..........
    ..........
    ....@@@@@@
    ..........
    ..........
    ..........
    ..........
    ..........
    ..........
    ..........
    ..........
    ..........
    ..........

u+2577:
BOX DRAWINGS LIGHT DOWN:
    ..........
    ..........
    ..........
    ..........
    ..........
    ..........
    ..........
    ..........
    ..........
    ....@.....
    ....@.....
    ....@.....
    ....@.....
    ....@.....
    ....@.....
    ....@.....
    ....@.....
    ....@.....
    ....@.....
    ....@.....

u+2578:
BOX DRAWINGS HEAVY LEFT:
    ..........
    ..........
    ..........
    ..........
    ..........
    ..........
    ..........
    ..........
    ..........
    @@@@@.....
    @@@@@.....
    ..........
    ..........
    ..........
    ..........
    ..........
    ..........
    ..........
    ..........
    ..........

u+2579:
BOX DRAWINGS HEAVY UP:
    ....@@....
    ....@@....
    ....@@....
    ....@@....
    ....@@....
    ....@@....
    ....@@....
    ....@@....
    ....@@....
    ....@@....
    ..........
    ..........
    ..........
    ..........
    ..........
    ..........
    ..........
    ..........
    ..........
    ..........

u+257a:
BOX DRAWINGS HEAVY RIGHT:
    ..........
    ..........
    ..........
    ..........
    ..........
    ..........
    ..........
    ..........
    ..........
    ....@@@@@@
    ....@@@@@@
    ..........
    ..........
    ..........
    ..........
    ..........
    ..........
    ..........
    ..........
    ..........

u+257b:
BOX DRAWINGS HEAVY DOWN:
    ..........
    ..........
    ..........
    ..........
    ..........
    ..........
    ..........
    ..........
    ..........
    ....@@....
    ....@@....
    ....@@....
    ....@@....
    ....@@....
    ....@@....
    ....@@....
    ....@@....
    ....@@....
    ....@@....
    ....@@....

u+257c:
BOX DRAWINGS LIGHT LEFT AND HEAVY RIGHT:
    ..........
    ..........
    ..........
    ..........
    ..........
    ..........
    ..........
    ..........
    ..........
    @@@@@@@@@@
    .....@@@@@
    ..........
    ..........
    ..........
    ..........
    ..........
    ..........
    ..........
    ..........
    ..........

u+257d:
BOX DRAWINGS LIGHT UP AND HEAVY DOWN:
    ....@.....
    ....@.....
    ....@.....
    ....@.....
    ....@.....
    ....@.....
    ....@.....
    ....@.....
    ....@.....
    ....@@....
    ....@@....
    ....@@....
    ....@@....
    ....@@....
    ....@@....
    ....@@....
    ....@@....
    ....@@....
    ....@@....
    ....@@....

u+257e:
BOX DRAWINGS HEAVY LEFT AND LIGHT RIGHT:
    ..........
    ..........
    ..........
    ..........
    ..........
    ..........
    ..........
    ..........
    ..........
    @@@@@@@@@@
    @@@@@.....
    ..........
    ..........
    ..........
    ..........
    ..........
    ..........
    ..........
    ..........
    ..........

u+257f:
BOX DRAWINGS HEAVY UP AND LIGHT DOWN:
    ....@@....
    ....@@....
    ....@@....
    ....@@....
    ....@@....
    ....@@....
    ....@@....
    ....@@....
    ....@@....
    ....@@....
    ....@.....
    ....@.....
    ....@.....
    ....@.....
    ....@.....
    ....@.....
    ....@.....
    ....@.....
    ....@.....
    ....@.....

u+2580:
UPPER HALF BLOCK:
    @@@@@@@@@@
    @@@@@@@@@@
    @@@@@@@@@@
    @@@@@@@@@@
    @@@@@@@@@@
    @@@@@@@@@@
    @@@@@@@@@@
    @@@@@@@@@@
    @@@@@@@@@@
    @@@@@@@@@@
    ..........
    ..........
    ..........
    ..........
    ..........
    ..........
    ..........
    ..........
    ..........
    ..........

u+2581:
LOWER ONE EIGHTH BLOCK:
    ..........
    ..........
    ..........
    ..........
    ..........
    ..........
    ..........
    ..........
    ..........
    ..........
    ..........
    ..........
    ..........
    ..........
    ..........
    ..........
    ..........
    ..........
    @@@@@@@@@@
    @@@@@@@@@@

u+2582:
LOWER ONE QUARTER BLOCK:
    ..........
    ..........
    ..........
    ..........
    ..........
    ..........
    ..........
    ..........
    ..........
    ..........
    ..........
    ..........
    ..........
    ..........
    ..........
    @@@@@@@@@@
    @@@@@@@@@@
    @@@@@@@@@@
    @@@@@@@@@@
    @@@@@@@@@@

u+2583:
LOWER THREE EIGHTHS BLOCK:
    ..........
    ..........
    ..........
    ..........
    ..........
    ..........
    ..........
    ..........
    ..........
    ..........
    ..........
    ..........
    ..........
    @@@@@@@@@@
    @@@@@@@@@@
    @@@@@@@@@@
    @@@@@@@@@@
    @@@@@@@@@@
    @@@@@@@@@@
    @@@@@@@@@@

u+2584:
LOWER HALF BLOCK:
    ..........
    ..........
    ..........
    ..........
    ..........
    ..........
    ..........
    ..........
    ..........
    ..........
    @@@@@@@@@@
    @@@@@@@@@@
    @@@@@@@@@@
    @@@@@@@@@@
    @@@@@@@@@@
    @@@@@@@@@@
    @@@@@@@@@@
    @@@@@@@@@@
    @@@@@@@@@@
    @@@@@@@@@@

u+2585:
LOWER FIVE EIGHTHS BLOCK:
    ..........
    ..........
    ..........
    ..........
    ..........
    ..........
    ..........
    ..........
    @@@@@@@@@@
    @@@@@@@@@@
    @@@@@@@@@@
    @@@@@@@@@@
    @@@@@@@@@@
    @@@@@@@@@@
    @@@@@@@@@@
    @@@@@@@@@@
    @@@@@@@@@@
    @@@@@@@@@@
    @@@@@@@@@@
    @@@@@@@@@@

u+2586:
LOWER THREE QUARTERS BLOCK:
    ..........
    ..........
    ..........
    ..........
    ..........
    @@@@@@@@@@
    @@@@@@@@@@
    @@@@@@@@@@
    @@@@@@@@@@
    @@@@@@@@@@
    @@@@@@@@@@
    @@@@@@@@@@
    @@@@@@@@@@
    @@@@@@@@@@
    @@@@@@@@@@
    @@@@@@@@@@
    @@@@@@@@@@
    @@@@@@@@@@
    @@@@@@@@@@
    @@@@@@@@@@

u+2587:
LOWER SEVEN EIGHTHS BLOCK:
    ..........
    ..........
    ..........
    @@@@@@@@@@
    @@@@@@@@@@
    @@@@@@@@@@
    @@@@@@@@@@
    @@@@@@@@@@
    @@@@@@@@@@
    @@@@@@@@@@
    @@@@@@@@@@
    @@@@@@@@@@
    @@@@@@@@@@
    @@@@@@@@@@
    @@@@@@@@@@
    @@@@@@@@@@
    @@@@@@@@@@
    @@@@@@@@@@
    @@@@@@@@@@
    @@@@@@@@@@

u+2588:
FULL BLOCK:
    @@@@@@@@@@
    @@@@@@@@@@
    @@@@@@@@@@
    @@@@@@@@@@
    @@@@@@@@@@
    @@@@@@@@@@
    @@@@@@@@@@
    @@@@@@@@@@
    @@@@@@@@@@
    @@@@@@@@@@
    @@@@@@@@@@
    @@@@@@@@@@
    @@@@@@@@@@
    @@@@@@@@@@
    @@@@@@@@@@
    @@@@@@@@@@
    @@@@@@@@@@
    @@@@@@@@@@
    @@@@@@@@@@
    @@@@@@@@@@

u+2589:
LEFT SEVEN EIGHTHS BLOCK:
    @@@@@@@@@.
    @@@@@@@@@.
    @@@@@@@@@.
    @@@@@@@@@.
    @@@@@@@@@.
    @@@@@@@@@.
    @@@@@@@@@.
    @@@@@@@@@.
    @@@@@@@@@.
    @@@@@@@@@.
    @@@@@@@@@.
    @@@@@@@@@.
    @@@@@@@@@.
    @@@@@@@@@.
    @@@@@@@@@.
    @@@@@@@@@.
    @@@@@@@@@.
    @@@@@@@@@.
    @@@@@@@@@.
    @@@@@@@@@.

u+258a:
LEFT THREE QUARTERS BLOCK:
    @@@@@@@...
    @@@@@@@...
    @@@@@@@...
    @@@@@@@...
    @@@@@@@...
    @@@@@@@...
    @@@@@@@...
    @@@@@@@...
    @@@@@@@...
    @@@@@@@...
    @@@@@@@...
    @@@@@@@...
    @@@@@@@...
    @@@@@@@...
    @@@@@@@...
    @@@@@@@...
    @@@@@@@...
    @@@@@@@...
    @@@@@@@...
    @@@@@@@...

u+258b:
LEFT FIVE EIGHTHS BLOCK:
    @@@@@@....
    @@@@@@....
    @@@@@@....
    @@@@@@....
    @@@@@@....
    @@@@@@....
    @@@@@@....
    @@@@@@....
    @@@@@@....
    @@@@@@....
    @@@@@@....
    @@@@@@....
    @@@@@@....
    @@@@@@....
    @@@@@@....
    @@@@@@....
    @@@@@@....
    @@@@@@....
    @@@@@@....
    @@@@@@....

u+258c:
LEFT HALF BLOCK:
    @@@@@.....
    @@@@@.....
    @@@@@.....
    @@@@@.....
    @@@@@.....
    @@@@@.....
    @@@@@.....
    @@@@@.....
    @@@@@.....
    @@@@@.....
    @@@@@.....
    @@@@@.....
    @@@@@.....
    @@@@@.....
    @@@@@.....
    @@@@@.....
    @@@@@.....
    @@@@@.....
    @@@@@.....
    @@@@@.....

u+258d:
LEFT THREE EIGHTHS BLOCK:
    @@@@......
    @@@@......
    @@@@......
    @@@@......
    @@@@......
    @@@@......
    @@@@......
    @@@@......
    @@@@......
    @@@@......
    @@@@......
    @@@@......
    @@@@......
    @@@@......
    @@@@......
    @@@@......
    @@@@......
    @@@@......
    @@@@......
    @@@@......

u+258e:
LEFT ONE QUARTER BLOCK:
    @@........
    @@........
    @@........
    @@........
    @@........
    @@........
    @@........
    @@........
    @@........
    @@........
    @@........
    @@........
    @@........
    @@........
    @@........
    @@........
    @@........
    @@........
    @@........
    @@........

u+258f:
LEFT ONE EIGHTH BLOCK:
    @.........
    @.........
    @.........
    @.........
    @.........
    @.........
    @.........
    @.........
    @.........
    @.........
    @.........
    @.........
    @.........
    @.........
    @.........
    @.........
    @.........
    @.........
    @.........
    @.........

u+2590:
RIGHT HALF BLOCK:
    .....@@@@@
    .....@@@@@
    .....@@@@@
    .....@@@@@
    .....@@@@@
    .....@@@@@
    .....@@@@@
    .....@@@@@
    .....@@@@@
    .....@@@@@
    .....@@@@@
    .....@@@@@
    .....@@@@@
    .....@@@@@
    .....@@@@@
    .....@@@@@
    .....@@@@@
    .....@@@@@
    .....@@@@@
    .....@@@@@

u+2591:
LIGHT SHADE:
    ..........
    .@....@...
    ..........
    ...@....@.
    ..........
    @....@....
    ..........
    ..@....@..
    ..........
    ....@....@
    ..........
    .@....@...
    ..........
    ...@....@.
    ..........
    @....@....
    ..........
    ..@....@..
    ..........
    ....@....@

u+2592:
LIGHT SHADE:
    ..........
    .@.@.@.@.@
    ..........
    @.@.@.@.@.
    ..........
    .@.@.@.@.@
    ..........
    @.@.@.@.@.
    ..........
    .@.@.@.@.@
    ..........
    @.@.@.@.@.
    ..........
    .@.@.@.@.@
    ..........
    @.@.@.@.@.
    ..........
    .@.@.@.@.@
    ..........
    @.@.@.@.@.

u+2593:
LIGHT SHADE:
    @.@.@.@.@.
    .@.@.@.@.@
    @.@.@.@.@.
    .@.@.@.@.@
    @.@.@.@.@.
    .@.@.@.@.@
    @.@.@.@.@.
    .@.@.@.@.@
    @.@.@.@.@.
    .@.@.@.@.@
    @.@.@.@.@.
    .@.@.@.@.@
    @.@.@.@.@.
    .@.@.@.@.@
    @.@.@.@.@.
    .@.@.@.@.@
    @.@.@.@.@.
    .@.@.@.@.@
    @.@.@.@.@.
    .@.@.@.@.@

u+2596:
QUADRANT LOWER LEFT:
    ..........
    ..........
    ..........
    ..........
    ..........
    ..........
    ..........
    ..........
    ..........
    ..........
    @@@@@.....
    @@@@@.....
    @@@@@.....
    @@@@@.....
    @@@@@.....
    @@@@@.....
    @@@@@.....
    @@@@@.....
    @@@@@.....
    @@@@@.....

u+2597:
QUADRANT LOWER RIGHT:
    ..........
    ..........
    ..........
    ..........
    ..........
    ..........
    ..........
    ..........
    ..........
    ..........
    .....@@@@@
    .....@@@@@
    .....@@@@@
    .....@@@@@
    .....@@@@@
    .....@@@@@
    .....@@@@@
    .....@@@@@
    .....@@@@@
    .....@@@@@

u+2598:
QUADRANT UPPER LEFT:
    @@@@@.....
    @@@@@.....
    @@@@@.....
    @@@@@.....
    @@@@@.....
    @@@@@.....
    @@@@@.....
    @@@@@.....
    @@@@@.....
    @@@@@.....
    ..........
    ..........
    ..........
    ..........
    ..........
    ..........
    ..........
    ..........
    ..........
    ..........

u+2599:
QUADRANT UPPER LEFT AND LOWER LEFT AND LOWER RIGHT:
    @@@@@.....
    @@@@@.....
    @@@@@.....
    @@@@@.....
    @@@@@.....
    @@@@@.....
    @@@@@.....
    @@@@@.....
    @@@@@.....
    @@@@@.....
    @@@@@@@@@@
    @@@@@@@@@@
    @@@@@@@@@@
    @@@@@@@@@@
    @@@@@@@@@@
    @@@@@@@@@@
    @@@@@@@@@@
    @@@@@@@@@@
    @@@@@@@@@@
    @@@@@@@@@@

u+259a:
QUADRANT UPPER LEFT AND LOWER RIGHT:
    @@@@@.....
    @@@@@.....
    @@@@@.....
    @@@@@.....
    @@@@@.....
    @@@@@.....
    @@@@@.....
    @@@@@.....
    @@@@@.....
    @@@@@.....
    .....@@@@@
    .....@@@@@
    .....@@@@@
    .....@@@@@
    .....@@@@@
    .....@@@@@
    .....@@@@@
    .....@@@@@
    .....@@@@@
    .....@@@@@

u+259b:
QUADRANT UPPER LEFT AND UPPER RIGHT AND LOWER LEFT:
    @@@@@@@@@@
    @@@@@@@@@@
    @@@@@@@@@@
    @@@@@@@@@@
    @@@@@@@@@@
    @@@@@@@@@@
    @@@@@@@@@@
    @@@@@@@@@@
    @@@@@@@@@@
    @@@@@@@@@@
    @@@@@.....
    @@@@@.....
    @@@@@.....
    @@@@@.....
    @@@@@.....
    @@@@@.....
    @@@@@.....
    @@@@@.....
    @@@@@.....
    @@@@@.....

u+259c:
QUADRANT UPPER LEFT AND UPPER RIGHT AND LOWER RIGHT:
    @@@@@@@@@@
    @@@@@@@@@@
    @@@@@@@@@@
    @@@@@@@@@@
    @@@@@@@@@@
    @@@@@@@@@@
    @@@@@@@@@@
    @@@@@@@@@@
    @@@@@@@@@@
    @@@@@@@@@@
    .....@@@@@
    .....@@@@@
    .....@@@@@
    .....@@@@@
    .....@@@@@
    .....@@@@@
    .....@@@@@
    .....@@@@@
    .....@@@@@
    .....@@@@@

u+259d:
QUADRANT UPPER RIGHT:
    .....@@@@@
    .....@@@@@
    .....@@@@@
    .....@@@@@
    .....@@@@@
    .....@@@@@
    .....@@@@@
    .....@@@@@
    .....@@@@@
    .....@@@@@
    ..........
    ..........
    ..........
    ..........
    ..........
    ..........
    ..........
    ..........
    ..........
    ..........

u+259e:
QUADRANT UPPER RIGHT AND LOWER LEFT:
    .....@@@@@
    .....@@@@@
    .....@@@@@
    .....@@@@@
    .....@@@@@
    .....@@@@@
    .....@@@@@
    .....@@@@@
    .....@@@@@
    .....@@@@@
    @@@@@.....
    @@@@@.....
    @@@@@.....
    @@@@@.....
    @@@@@.....
    @@@@@.....
    @@@@@.....
    @@@@@.....
    @@@@@.....
    @@@@@.....

u+259f:
QUADRANT UPPER RIGHT AND LOWER LEFT AND LOWER RIGHT:
    .....@@@@@
    .....@@@@@
    .....@@@@@
    .....@@@@@
    .....@@@@@
    .....@@@@@
    .....@@@@@
    .....@@@@@
    .....@@@@@
    .....@@@@@
    @@@@@@@@@@
    @@@@@@@@@@
    @@@@@@@@@@
    @@@@@@@@@@
    @@@@@@@@@@
    @@@@@@@@@@
    @@@@@@@@@@
    @@@@@@@@@@
    @@@@@@@@@@
    @@@@@@@@@@

u+25a0:
BLACK SQUARE:
    ..........
    ..........
    ..........
    ..........
    ..........
    ..........
    .@@@@@@@@.
    .@@@@@@@@.
    .@@@@@@@@.
    .@@@@@@@@.
    .@@@@@@@@.
    .@@@@@@@@.
    .@@@@@@@@.
    .@@@@@@@@.
    ..........
    ..........
    ..........
    ..........
    ..........
    ..........

u+25ac:
BLACK RECTANGLE:
    ..........
    ..........
    ..........
    ..........
    ..........
    ..........
    ..........
    ..........
    ..........
    ..........
    ..........
    .@@@@@@@@.
    .@@@@@@@@.
    .@@@@@@@@.
    .@@@@@@@@.
    .@@@@@@@@.
    ..........
    ..........
    ..........
    ..........

u+25ae:
BLACK VERTICAL RECTANGLE:
    ..........
    ..........
    ..........
    .@@@@@@@..
    .@@@@@@@..
    .@@@@@@@..
    .@@@@@@@..
    .@@@@@@@..
    .@@@@@@@..
    .@@@@@@@..
    .@@@@@@@..
    .@@@@@@@..
    .@@@@@@@..
    .@@@@@@@..
    .@@@@@@@..
    .@@@@@@@..
    ..........
    ..........
    ..........
    ..........

u+25b2:
BLACK UP-POINTING TRIANGLE:
    ..........
    ..........
    ..........
    ..........
    ..........
    ..........
    ..........
    ..........
    ....@.....
    ...@@@....
    ..@@@@@...
    .@@@@@@@..
    @@@@@@@@@.
    ..........
    ..........
    ..........
    ..........
    ..........
    ..........
    ..........

u+25b6:
BLACK RIGHT-POINTING TRIANGLE:
    ..........
    ..........
    ..........
    ..........
    ..........
    ..@.......
    ..@@......
    ..@@@.....
    ..@@@@....
    ..@@@@@...
    ..@@@@....
    ..@@@.....
    ..@@......
    ..@.......
    ..........
    ..........
    ..........
    ..........
    ..........
    ..........

u+25bc:
BLACK DOWN-POINTING TRIANGLE:
    ..........
    ..........
    ..........
    ..........
    ..........
    ..........
    ..........
    ..........
    @@@@@@@@@.
    .@@@@@@@..
    ..@@@@@...
    ...@@@....
    ....@.....
    ..........
    ..........
    ..........
    ..........
    ..........
    ..........
    ..........

u+25c0:
BLACK LEFT-POINTING TRIANGLE:
    ..........
    ..........
    ..........
    ..........
    ..........
    ......@...
    .....@@...
    ....@@@...
    ...@@@@...
    ..@@@@@...
    ...@@@@...
    ....@@@...
    .....@@...
    ......@...
    ..........
    ..........
    ..........
    ..........
    ..........
    ..........

u+25c6:
BLACK DIAMOND:
    ..........
    ..........
    ..........
    ..........
    ..........
    ....@.....
    ...@@@....
    ..@@@@@...
    .@@@@@@@..
    @@@@@@@@@.
    .@@@@@@@..
    ..@@@@@...
    ...@@@....
    ....@.....
    ..........
    ..........
    ..........
    ..........
    ..........
    ..........

u+25ca:
LOZENGE:
    ..........
    ..........
    ..........
    ..........
    ..........
    ....@.....
    ...@.@....
    ..@...@...
    .@.....@..
    @.......@.
    .@.....@..
    ..@...@...
    ...@.@....
    ....@.....
    ..........
    ..........
    ..........
    ..........
    ..........
    ..........

u+25cb:
WHITE CIRCLE:
    ..........
    ..........
    ..........
    ..........
    ..........
    ..........
    ..........
    ...@@@@...
    ..@....@..
    ..@....@..
    ..@....@..
    ..@....@..
    ...@@@@...
    ..........
    ..........
    ..........
    ..........
    ..........
    ..........
    ..........

u+25cf:
BLACK CIRCLE:
    ..........
    ..........
    ..........
    ..........
    ..........
    ..........
    ..........
    ...@@@@...
    ..@@@@@@..
    ..@@@@@@..
    ..@@@@@@..
    ..@@@@@@..
    ...@@@@...
    ..........
    ..........
    ..........
    ..........
    ..........
    ..........
    ..........

u+25d8:
INVERSE BULLET:
    @@@@@@@@@@
    @@@@@@@@@@
    @@@@@@@@@@
    @@@@@@@@@@
    @@@@@@@@@@
    @@@@@@@@@@
    @@@@@@@@@@
    @@@@@@@@@@
    @@@@..@@@@
    @@@....@@@
    @@@....@@@
    @@@@..@@@@
    @@@@@@@@@@
    @@@@@@@@@@
    @@@@@@@@@@
    @@@@@@@@@@
    @@@@@@@@@@
    @@@@@@@@@@
    @@@@@@@@@@
    @@@@@@@@@@

u+25d9:
INVERSE WHITE CIRCLE:
    @@@@@@@@@@
    @@@@@@@@@@
    @@@@@@@@@@
    @@@@@@@@@@
    @@@@@@@@@@
    @@@@@@@@@@
    @@@@@@@@@@
    @@@....@@@
    @@.@@@@.@@
    @@.@@@@.@@
    @@.@@@@.@@
    @@.@@@@.@@
    @@@....@@@
    @@@@@@@@@@
    @@@@@@@@@@
    @@@@@@@@@@
    @@@@@@@@@@
    @@@@@@@@@@
    @@@@@@@@@@
    @@@@@@@@@@

u+263a:
WHITE SMILING FACE:
    ..........
    ..........
    ..........
    ..........
    .@@@@@@@@.
    @........@
    @........@
    @.@@..@@.@
    @.@...@..@
    @........@
    @........@
    @.@....@.@
    @..@@@@..@
    @........@
    @........@
    .@@@@@@@@.
    ..........
    ..........
    ..........
    ..........

u+263b:
BLACK SMILING FACE:
    ..........
    ..........
    ..........
    ..........
    .@@@@@@@@.
    @@@@@@@@@@
    @@@@@@@@@@
    @@..@@..@@
    @@.@@@.@@@
    @@@@@@@@@@
    @@@@@@@@@@
    @@.@@@@.@@
    @@@....@@@
    @@@@@@@@@@
    @@@@@@@@@@
    .@@@@@@@@.
    ..........
    ..........
    ..........
    ..........

u+263c:
WHITE SUN WITH RAYS:
    ..........
    ..........
    ..........
    ....@.....
    ....@.....
    @...@...@.
    .@..@..@..
    ..@.@.@...
    ...@@@....
    @@@@.@@@@.
    ...@@@....
    ..@.@.@...
    .@..@..@..
    @...@...@.
    ....@.....
    ....@.....
    ..........
    ..........
    ..........
    ..........

u+2660:
BLACK SPADE SUIT:
    ..........
    ..........
    ..........
    ..........
    ....@.....
    ....@.....
    ...@@@....
    ..@@@@@...
    .@@@@@@@..
    @@@@@@@@@.
    @@@@@@@@@.
    @@@@@@@@@.
    .@@.@.@@..
    ....@.....
    ..@@@@@...
    ..........
    ..........
    ..........
    ..........
    ..........

u+2663:
BLACK CLUB SUIT:
    ..........
    ..........
    ..........
    ..........
    ....@.....
    ...@@@....
    ..@@@@@...
    ..@@@@@...
    ...@@@....
    .@@.@.@@..
    @@@@@@@@@.
    @@@@@@@@@.
    .@@.@.@@..
    ....@.....
    ..@@@@@...
    ..........
    ..........
    ..........
    ..........
    ..........

u+2665:
BLACK HEART SUIT:
    ..........
    ..........
    ..........
    ..........
    ..........
    ..........
    .@@...@@..
    @@@@.@@@@.
    @@@@@@@@@.
    @@@@@@@@@.
    .@@@@@@@..
    ..@@@@@...
    ...@@@....
    ....@.....
    ..........
    ..........
    ..........
    ..........
    ..........
    ..........

u+2666:
BLACK DIAMOND SUIT:
    ..........
    ..........
    ..........
    ..........
    ..........
    ....@.....
    ...@@@....
    ..@@@@@...
    .@@@@@@@..
    @@@@@@@@@.
    .@@@@@@@..
    ..@@@@@...
    ...@@@....
    ....@.....
    ..........
    ..........
    ..........
    ..........
    ..........
    ..........

u+266b:
char9835:
    ..........
    ..........
    ..........
    ..........
    ..........
    ..........
    ...@@@@@@.
    ...@@@@@@.
    ...@....@.
    ...@....@.
    ...@....@.
    ...@....@.
    ...@....@.
    .@@@..@@@.
    .@@@..@@@.
    ..........
    ..........
    ..........
    ..........
    ..........

u+e030:
char57392:
    ..........
    ..........
    ..........
    ..........
    ..........
    @@@@@@@@@@
    @@@@@@@@@@
    @@@@@@@@@@
    @@@@@@@@@@
    @@@@@@@@@@
    @@@@@@@@@@
    @@@@@@@@@@
    @@@@@@@@@@
    @@@@@@@@@@
    @@@@@@@@@@
    ..........
    ..........
    ..........
    ..........
    ..........

u+e031:
char57393:
    ..........
    ..........
    ..........
    ..........
    ..........
    @@@@@@@@@@
    @........@
    @.@@@@@@.@
    @.@@@@@@.@
    @.@@@@@@.@
    @.@@@@@@.@
    @.@@@@@@.@
    @.@@@@@@.@
    @........@
    @@@@@@@@@@
    ..........
    ..........
    ..........
    ..........
    ..........

u+e032:
char57393:
    ..........
    ..........
    ..........
    ..........
    ..........
    @@@@@@@@@@
    @........@
    @........@
    @........@
    @........@
    @........@
    @........@
    @........@
    @........@
    @@@@@@@@@@
    ..........
    ..........
    ..........
    ..........
    ..........

u+e033:
char57395:
    ..........
    ..........
    ..........
    ..........
    ..........
    @@@@@@@@@@
    @........@
    @.@@@@@@.@
    @.@....@.@
    @.@....@.@
    @.@....@.@
    @.@....@.@
    @.@@@@@@.@
    @........@
    @@@@@@@@@@
    ..........
    ..........
    ..........
    ..........
    ..........

u+e034:
char57396:
    ..........
    ..........
    ..........
    ..........
    ..........
    @@@@@@@@@@
    @..@..@..@
    @.@..@..@@
    @@..@..@.@
    @..@..@..@
    @.@..@..@@
    @@..@..@.@
    @..@..@..@
    @.@..@...@
    @@@@@@@@@@
    ..........
    ..........
    ..........
    ..........
    ..........

u+e035:
char57397:
    ..........
    ..........
    ..........
    ..........
    ..........
    @@@@@@@@@@
    @........@
    @..@.@.@.@
    @.@.@.@..@
    @..@.@.@.@
    @.@.@.@..@
    @..@.@.@.@
    @.@.@.@..@
    @........@
    @@@@@@@@@@
    ..........
    ..........
    ..........
    ..........
    ..........

u+e036:
char57394:
    ..........
    ..........
    ..........
    ..........
    ..........
    @@@@@@@@@@
    @........@
    @..@..@..@
    @.@@@@@@.@
    @..@..@..@
    @..@..@..@
    @.@@@@@@.@
    @..@..@..@
    @........@
    @@@@@@@@@@
    ..........
    ..........
    ..........
    ..........
    ..........

u+e037:
char57393:
    ..........
    ..........
    ..........
    ..........
    ..........
    @@@....@@@
    @........@
    @........@
    ..........
    ..........
    ..........
    ..........
    @........@
    @........@
    @@@....@@@
    ..........
    ..........
    ..........
    ..........
    ..........

u+e038:
char57393:
    ..........
    ..........
    ..........
    ..........
    ..........
    @@..@@..@@
    @........@
    ..........
    ..........
    @........@
    @........@
    ..........
    ..........
    @........@
    @@..@@..@@
    ..........
    ..........
    ..........
    ..........
    ..........

u+e039:
char57393:
    ..........
    ..........
    ..........
    ..........
    ..........
    @..@..@..@
    ..@..@..@.
    .@..@..@..
    @..@..@..@
    ..@..@..@.
    .@..@..@..
    @..@..@..@
    ..@..@..@.
    .@..@..@..
    @..@..@..@
    ..........
    ..........
    ..........
    ..........
    ..........

u+e040:
char57408:
    ..........
    ..........
    ..........
    ..........
    @@@@@@@@@@
    @@@@@@@@@@
    @@@@@@@@@@
    @@@@@@@@@@
    @@@@@@@@@@
    @@@@@@@@@@
    @@@@@@@@@@
    @@@@@@@@@@
    @@@@@@@@@@
    @@@@@@@@@@
    @@@@@@@@@@
    @@@@@@@@@@
    ..........
    ..........
    ..........
    ..........

u+e042:
char57408:
    ..........
    ..........
    ..........
    ..........
    @@@@@@@@@@
    @.........
    @.@@@@@@@@
    @.@@@@@@@@
    @.@@@@@@@@
    @.@@@@@@@@
    @.@@@@@@@@
    @.@@@@@@@@
    @.@@@@@@@@
    @.@@@@@@@@
    @.........
    @@@@@@@@@@
    ..........
    ..........
    ..........
    ..........

u+e043:
char57409:
    ..........
    ..........
    ..........
    ..........
    @@@@@@@@@@
    .........@
    @@@@@@@@.@
    @@@@@@@@.@
    @@@@@@@@.@
    @@@@@@@@.@
    @@@@@@@@.@
    @@@@@@@@.@
    @@@@@@@@.@
    @@@@@@@@.@
    .........@
    @@@@@@@@@@
    ..........
    ..........
    ..........
    ..........

u+e044:
char57414:
    ..........
    ..........
    ..........
    ..........
    @@@@@@@@@@
    @.........
    @.........
    @.........
    @.........
    @.........
    @.........
    @.........
    @.........
    @.........
    @.........
    @@@@@@@@@@
    ..........
    ..........
    ..........
    ..........

u+e045:
char57414:
    ..........
    ..........
    ..........
    ..........
    @@@@@@@@@@
    .........@
    .........@
    .........@
    .........@
    .........@
    .........@
    .........@
    .........@
    .........@
    .........@
    @@@@@@@@@@
    ..........
    ..........
    ..........
    ..........

u+e050:
char57408:
    ..........
    ..........
    ..........
    ..........
    ..........
    ..........
    @@@@@@@@@@
    @@@@@@@@@@
    @@@@@@@@@@
    @@@@@@@@@@
    @@@@@@@@@@
    @@@@@@@@@@
    @@@@@@@@@@
    @@@@@@@@@@
    ..........
    ..........
    ..........
    ..........
    ..........
    ..........

u+e052:
char57408:
    ..........
    ..........
    ..........
    ..........
    ..........
    ..........
    ..........
    @@@@@@@@@@
    @.........
    @.........
    @...@@@@@@
    @.........
    @.........
    @@@@@@@@@@
    ..........
    ..........
    ..........
    ..........
    ..........
    ..........

u+e053:
char57408:
    ..........
    ..........
    ..........
    ..........
    ..........
    ..........
    ..........
    @@@@@@@@@@
    .........@
    .........@
    @@@@@@...@
    .........@
    .........@
    @@@@@@@@@@
    ..........
    ..........
    ..........
    ..........
    ..........
    ..........

u+e054:
char57408:
    ..........
    ..........
    ..........
    ..........
    ..........
    ..........
    ..........
    @@@@@@@@@@
    @.........
    @.........
    @.........
    @.........
    @.........
    @@@@@@@@@@
    ..........
    ..........
    ..........
    ..........
    ..........
    ..........

u+e055:
char57408:
    ..........
    ..........
    ..........
    ..........
    ..........
    ..........
    ..........
    @@@@@@@@@@
    .........@
    .........@
    .........@
    .........@
    .........@
    @@@@@@@@@@
    ..........
    ..........
    ..........
    ..........
    ..........
    ..........

u+e060:
char57440:
    ..........
    ..........
    ..........
    ..........
    ..........
    ..........
    ..........
    .@@@@@@@@.
    ..........
    ..........
    .@@@@@@@@.
    ..........
    ..........
    .@@@@@@@@.
    ..........
    ..........
    ..........
    ..........
    ..........
    ..........

u+e061:
char57441:
    ..........
    ..........
    ..........
    ..........
    ..........
    ..........
    ..........
    .@@.@@.@@.
    ..........
    ..........
    .@@@@@@@@.
    ..........
    ..........
    .@@@@@@@@.
    ..........
    ..........
    ..........
    ..........
    ..........
    ..........

u+e062:
char57440:
    ..........
    ..........
    ..........
    ..........
    ..........
    ..........
    ..........
    .@@@@@@@@.
    ..........
    ..........
    .@@.@@.@@.
    ..........
    ..........
    .@@@@@@@@.
    ..........
    ..........
    ..........
    ..........
    ..........
    ..........

u+e063:
char57440:
    ..........
    ..........
    ..........
    ..........
    ..........
    ..........
    ..........
    .@@@@@@@@.
    ..........
    ..........
    .@@@@@@@@.
    ..........
    ..........
    .@@.@@.@@.
    ..........
    ..........
    ..........
    ..........
    ..........
    ..........

u+e064:
char57440:
    ..........
    ..........
    ..........
    ..........
    ..........
    ..........
    ..........
    .@@.@@.@@.
    ..........
    ..........
    .@@.@@.@@.
    ..........
    ..........
    .@@@@@@@@.
    ..........
    ..........
    ..........
    ..........
    ..........
    ..........

u+e065:
char57440:
    ..........
    ..........
    ..........
    ..........
    ..........
    ..........
    ..........
    .@@.@@.@@.
    ..........
    ..........
    .@@@@@@@@.
    ..........
    ..........
    .@@.@@.@@.
    ..........
    ..........
    ..........
    ..........
    ..........
    ..........

u+e066:
char57440:
    ..........
    ..........
    ..........
    ..........
    ..........
    ..........
    ..........
    .@@@@@@@@.
    ..........
    ..........
    .@@.@@.@@.
    ..........
    ..........
    .@@.@@.@@.
    ..........
    ..........
    ..........
    ..........
    ..........
    ..........

u+e067:
char57440:
    ..........
    ..........
    ..........
    ..........
    ..........
    ..........
    ..........
    .@@.@@.@@.
    ..........
    ..........
    .@@.@@.@@.
    ..........
    ..........
    .@@.@@.@@.
    ..........
    ..........
    ..........
    ..........
    ..........
    ..........

u+e070:
char57461:
    ..........
    ..........
    ..........
    ..........
    ..........
    @@@@@@@@@@
    @...@....@
    @...@....@
    @...@....@
    @...@....@
    @...@....@
    @........@
    @........@
    @........@
    @@@@@@@@@@
    ..........
    ..........
    ..........
    ..........
    ..........

u+e071:
char57461:
    ..........
    ..........
    ..........
    ..........
    ..........
    @@@@@@@@@@
    @........@
    @........@
    @........@
    @...@@@@@@
    @........@
    @........@
    @........@
    @........@
    @@@@@@@@@@
    ..........
    ..........
    ..........
    ..........
    ..........

u+e072:
char57461:
    ..........
    ..........
    ..........
    ..........
    ..........
    @@@@@@@@@@
    @........@
    @........@
    @........@
    @...@....@
    @...@....@
    @...@....@
    @...@....@
    @...@....@
    @@@@@@@@@@
    ..........
    ..........
    ..........
    ..........
    ..........

u+e073:
char57461:
    ..........
    ..........
    ..........
    ..........
    ..........
    @@@@@@@@@@
    @........@
    @........@
    @........@
    @@@@@@...@
    @........@
    @........@
    @........@
    @........@
    @@@@@@@@@@
    ..........
    ..........
    ..........
    ..........
    ..........

u+e074:
char57461:
    ..........
    ..........
    ..........
    ..........
    ..........
    @@@@@@@@@@
    @........@
    @........@
    @........@
    @...@@@@@@
    @...@....@
    @...@....@
    @...@....@
    @...@....@
    @@@@@@@@@@
    ..........
    ..........
    ..........
    ..........
    ..........

u+e075:
char57461:
    ..........
    ..........
    ..........
    ..........
    ..........
    @@@@@@@@@@
    @........@
    @........@
    @........@
    @@@@@@@@@@
    @........@
    @........@
    @........@
    @........@
    @@@@@@@@@@
    ..........
    ..........
    ..........
    ..........
    ..........

u+e076:
char57461:
    ..........
    ..........
    ..........
    ..........
    ..........
    @@@@@@@@@@
    @........@
    @........@
    @........@
    @@@@@@...@
    @....@...@
    @....@...@
    @....@...@
    @....@...@
    @@@@@@@@@@
    ..........
    ..........
    ..........
    ..........
    ..........

u+e077:
char57461:
    ..........
    ..........
    ..........
    ..........
    ..........
    @@@@@@@@@@
    @....@...@
    @....@...@
    @....@...@
    @@@@@@...@
    @....@...@
    @....@...@
    @....@...@
    @....@...@
    @@@@@@@@@@
    ..........
    ..........
    ..........
    ..........
    ..........

u+e078:
char57461:
    ..........
    ..........
    ..........
    ..........
    ..........
    @@@@@@@@@@
    @........@
    @........@
    @........@
    @@@@@@@@@@
    @....@...@
    @....@...@
    @....@...@
    @....@...@
    @@@@@@@@@@
    ..........
    ..........
    ..........
    ..........
    ..........

u+e079:
char57461:
    ..........
    ..........
    ..........
    ..........
    ..........
    @@@@@@@@@@
    @...@....@
    @...@....@
    @...@....@
    @@@@@@@@@@
    @...@....@
    @...@....@
    @...@....@
    @...@....@
    @@@@@@@@@@
    ..........
    ..........
    ..........
    ..........
    ..........

u+e0b0:
char57520:
    @.........
    @@........
    @@@.......
    @@@@......
    @@@@@.....
    @@@@@@....
    @@@@@@@...
    @@@@@@@@..
    @@@@@@@@@.
    @@@@@@@@@@
    @@@@@@@@@@
    @@@@@@@@@.
    @@@@@@@@..
    @@@@@@@...
    @@@@@@....
    @@@@@.....
    @@@@......
    @@@.......
    @@........
    @.........

u+e0b1:
char57521:
    @.........
    .@........
    ..@.......
    ...@......
    ....@.....
    .....@....
    ......@...
    .......@..
    ........@.
    .........@
    .........@
    ........@.
    .......@..
    ......@...
    .....@....
    ....@.....
    ...@......
    ..@.......
    .@........
    @.........

u+e0b2:
char57522:
    .........@
    ........@@
    .......@@@
    ......@@@@
    .....@@@@@
    ....@@@@@@
    ...@@@@@@@
    ..@@@@@@@@
    .@@@@@@@@@
    @@@@@@@@@@
    @@@@@@@@@@
    .@@@@@@@@@
    ..@@@@@@@@
    ...@@@@@@@
    ....@@@@@@
    .....@@@@@
    ......@@@@
    .......@@@
    ........@@
    .........@

u+e0b3:
char57523:
    .........@
    ........@.
    .......@..
    ......@...
    .....@....
    ....@.....
    ...@......
    ..@.......
    .@........
    @.........
    @.........
    .@........
    ..@.......
    ...@......
    ....@.....
    .....@....
    ......@...
    .......@..
    ........@.
    .........@

u+fffd:
REPLACEMENT CHARACTER:
    ..........
    ..........
    ..........
    ..........
    ..........
    .@@@@@@@..
    .@.....@..
    .@.....@..
    .@.....@..
    .@.....@..
    .@.....@..
    .@.....@..
    .@.....@..
    .@@@@@@@..
    ..........
    ..........
    ..........
    ..........
    ..........
    ..........

